<svg width="32" height="32" viewBox="0 0 32 32" fill="none" xmlns="http://www.w3.org/2000/svg">
<path d="M13.0001 21.5V22.5C13.0001 24.1569 14.3432 25 16.0001 25C17.6569 25 19.0001 24.1569 19.0001 22.5V21.5M10 12.5C10 9.18629 12.6863 7.5 16 7.5C19.3138 7.5 22 9.18629 22 12.5C22 14.4392 22.7051 16.6133 23.4316 18.3389C24.0349 19.7717 23.0223 21.5 21.4677 21.5H10.5324C8.97784 21.5 7.96524 19.7717 8.56848 18.3389C9.29499 16.6133 10 14.4392 10 12.5Z" stroke="#BA0F43" stroke-width="1.5" stroke-linecap="round" stroke-linejoin="round"/>
<circle cx="16" cy="16" r="15.5" stroke="#BA0F43"/>
</svg>
