<svg width="20" height="20" viewBox="0 0 20 20" fill="none" xmlns="http://www.w3.org/2000/svg">
<path d="M10.0425 18.2909C5.60507 18.287 1.94896 14.8066 1.7268 10.3747C1.50464 5.94287 4.79436 2.11426 9.20916 1.66669V5.03335C6.70134 5.45717 4.91242 7.6977 5.05428 10.2371C5.19614 12.7765 7.22348 14.8039 9.7629 14.9457C12.3023 15.0876 14.5429 13.2987 14.9667 10.7909H18.3333C17.8998 15.0463 14.3191 18.2851 10.0417 18.2909H10.0425ZM18.3342 9.12419H14.9675C14.6129 7.02894 12.9712 5.38757 10.8758 5.03335V1.66669C14.8151 2.07001 17.9296 5.18417 18.3333 9.12335L18.3342 9.12419Z" fill="#1387F2"/>
</svg>
