<svg width="70" height="72" viewBox="0 0 70 72" fill="none" xmlns="http://www.w3.org/2000/svg">
<g opacity="0.9">
<path d="M37.7224 22.6496L26.4623 25.5245C22.378 26.5673 20.6408 29.4532 21.7388 33.3578L25.4575 46.5823C26.5735 50.5509 29.578 52.1713 33.6623 51.1285L44.9223 48.2535C49.0725 47.1939 50.7569 44.3764 49.641 40.4078L45.9222 27.1834C44.8242 23.2788 41.8726 21.59 37.7224 22.6496Z" fill="url(#paint0_linear_218_265)"/>
<g filter="url(#filter0_f_218_265)">
<rect width="17.1743" height="15.1643" rx="7.58213" transform="matrix(-0.270704 -0.962662 0.968918 -0.247383 30.0171 46.5151)" fill="#8237FF" fill-opacity="0.5"/>
</g>
<g filter="url(#filter1_b_218_265)">
<path d="M48.3111 29.4929H36.6538C32.4254 29.4929 29.9635 31.852 29.9635 35.8943V49.5853C29.9635 53.6939 32.4254 56 36.6538 56H48.3111C52.6076 56 55 53.6939 55 49.5853V35.8943C55 31.852 52.6076 29.4929 48.3111 29.4929Z" fill="#BA90FF" fill-opacity="0.35"/>
<path d="M48.3111 28.9929H36.6538C34.449 28.9929 32.6387 29.6091 31.3773 30.8165C30.1129 32.0268 29.4635 33.7703 29.4635 35.8943V49.5853C29.4635 51.7405 30.1117 53.4887 31.3781 54.6953C32.6409 55.8986 34.4519 56.5 36.6538 56.5H48.3111C50.5453 56.5 52.3577 55.8995 53.6131 54.694C54.8715 53.4855 55.5 51.7365 55.5 49.5853V35.8943C55.5 33.7743 54.8704 32.03 53.6139 30.8179C52.3599 29.6081 50.5482 28.9929 48.3111 28.9929Z" stroke="url(#paint1_linear_218_265)" stroke-linecap="round" stroke-linejoin="round"/>
</g>
<g filter="url(#filter2_bd_218_265)">
<mask id="path-5-inside-1_218_265" fill="white">
<path fill-rule="evenodd" clip-rule="evenodd" d="M37.0293 35.6563V35.6696C36.4298 35.6696 35.9444 36.1334 35.9444 36.7033C35.9444 37.2732 36.4298 37.7371 37.0293 37.7371H41.1868C41.7863 37.7371 42.2731 37.2732 42.2731 36.6888C42.2731 36.1202 41.7863 35.6563 41.1868 35.6563H37.0293ZM47.9341 43.728H37.0293C36.4298 43.728 35.9444 43.2641 35.9444 42.6942C35.9444 42.1243 36.4298 41.6591 37.0293 41.6591H47.9341C48.5322 41.6591 49.019 42.1243 49.019 42.6942C49.019 43.2641 48.5322 43.728 47.9341 43.728ZM47.9342 49.7847H37.0294C36.6122 49.8378 36.2088 49.639 35.9862 49.3076C35.7637 48.963 35.7637 48.5257 35.9862 48.1943C36.2088 47.8497 36.6122 47.6642 37.0294 47.7039H47.9342C48.4892 47.757 48.9079 48.2076 48.9079 48.751C48.9079 49.2798 48.4892 49.7317 47.9342 49.7847Z"/>
</mask>
<path fill-rule="evenodd" clip-rule="evenodd" d="M37.0293 35.6563V35.6696C36.4298 35.6696 35.9444 36.1334 35.9444 36.7033C35.9444 37.2732 36.4298 37.7371 37.0293 37.7371H41.1868C41.7863 37.7371 42.2731 37.2732 42.2731 36.6888C42.2731 36.1202 41.7863 35.6563 41.1868 35.6563H37.0293ZM47.9341 43.728H37.0293C36.4298 43.728 35.9444 43.2641 35.9444 42.6942C35.9444 42.1243 36.4298 41.6591 37.0293 41.6591H47.9341C48.5322 41.6591 49.019 42.1243 49.019 42.6942C49.019 43.2641 48.5322 43.728 47.9341 43.728ZM47.9342 49.7847H37.0294C36.6122 49.8378 36.2088 49.639 35.9862 49.3076C35.7637 48.963 35.7637 48.5257 35.9862 48.1943C36.2088 47.8497 36.6122 47.6642 37.0294 47.7039H47.9342C48.4892 47.757 48.9079 48.2076 48.9079 48.751C48.9079 49.2798 48.4892 49.7317 47.9342 49.7847Z" fill="url(#paint2_linear_218_265)"/>
<path d="M37.0293 35.6696V36.0696H37.4293V35.6696H37.0293ZM37.0293 35.6563V35.2563H36.6293V35.6563H37.0293ZM37.0294 49.7847V49.3847H37.0041L36.979 49.3879L37.0294 49.7847ZM47.9342 49.7847V50.1847H47.9533L47.9723 50.1829L47.9342 49.7847ZM35.9862 49.3076L35.6502 49.5247L35.6542 49.5306L35.9862 49.3076ZM35.9862 48.1943L36.3184 48.4174L36.3223 48.4113L35.9862 48.1943ZM37.0294 47.7039L36.9915 48.1021L37.0104 48.1039H37.0294V47.7039ZM47.9342 47.7039L47.9723 47.3057L47.9533 47.3039H47.9342V47.7039ZM37.4293 35.6696V35.6563H36.6293V35.6696H37.4293ZM36.3444 36.7033C36.3444 36.372 36.6327 36.0696 37.0293 36.0696V35.2696C36.227 35.2696 35.5444 35.8949 35.5444 36.7033H36.3444ZM37.0293 37.3371C36.6327 37.3371 36.3444 37.0347 36.3444 36.7033H35.5444C35.5444 37.5118 36.227 38.1371 37.0293 38.1371V37.3371ZM41.1868 37.3371H37.0293V38.1371H41.1868V37.3371ZM41.8731 36.6888C41.8731 37.0376 41.5804 37.3371 41.1868 37.3371V38.1371C41.9922 38.1371 42.6731 37.5089 42.6731 36.6888H41.8731ZM41.1868 36.0563C41.5845 36.0563 41.8731 36.3597 41.8731 36.6888H42.6731C42.6731 35.8806 41.9881 35.2563 41.1868 35.2563V36.0563ZM37.0293 36.0563H41.1868V35.2563H37.0293V36.0563ZM37.0293 44.128H47.9341V43.328H37.0293V44.128ZM35.5444 42.6942C35.5444 43.5027 36.227 44.128 37.0293 44.128V43.328C36.6327 43.328 36.3444 43.0255 36.3444 42.6942H35.5444ZM37.0293 41.2591C36.2263 41.2591 35.5444 41.8864 35.5444 42.6942H36.3444C36.3444 42.3622 36.6334 42.0591 37.0293 42.0591V41.2591ZM47.9341 41.2591H37.0293V42.0591H47.9341V41.2591ZM49.419 42.6942C49.419 41.886 48.7354 41.2591 47.9341 41.2591V42.0591C48.329 42.0591 48.619 42.3625 48.619 42.6942H49.419ZM47.9341 44.128C48.7347 44.128 49.419 43.503 49.419 42.6942H48.619C48.619 43.0252 48.3297 43.328 47.9341 43.328V44.128ZM37.0294 50.1847H47.9342V49.3847H37.0294V50.1847ZM35.6542 49.5306C35.9574 49.982 36.5059 50.2545 37.0798 50.1816L36.979 49.3879C36.7184 49.4211 36.4602 49.2959 36.3183 49.0846L35.6542 49.5306ZM35.6542 47.9713C35.3393 48.4401 35.3441 49.0506 35.6502 49.5246L36.3223 49.0906C36.1833 48.8754 36.1881 48.6112 36.3183 48.4173L35.6542 47.9713ZM37.0674 47.3057C36.5102 47.2527 35.9585 47.4999 35.6502 47.9773L36.3223 48.4113C36.4591 48.1995 36.7141 48.0757 36.9915 48.1021L37.0674 47.3057ZM47.9342 47.3039H37.0294V48.1039H47.9342V47.3039ZM49.3079 48.751C49.3079 47.9934 48.7244 47.3776 47.9723 47.3057L47.8962 48.1021C48.254 48.1363 48.5079 48.4218 48.5079 48.751H49.3079ZM47.9723 50.1829C48.7215 50.1114 49.3079 49.4968 49.3079 48.751H48.5079C48.5079 49.0628 48.2569 49.3521 47.8962 49.3866L47.9723 50.1829Z" fill="url(#paint3_linear_218_265)" mask="url(#path-5-inside-1_218_265)"/>
</g>
</g>
<defs>
<filter id="filter0_f_218_265" x="0.137207" y="0.867371" width="69.8036" height="71.011" filterUnits="userSpaceOnUse" color-interpolation-filters="sRGB">
<feFlood flood-opacity="0" result="BackgroundImageFix"/>
<feBlend mode="normal" in="SourceGraphic" in2="BackgroundImageFix" result="shape"/>
<feGaussianBlur stdDeviation="13.5" result="effect1_foregroundBlur_218_265"/>
</filter>
<filter id="filter1_b_218_265" x="4.9635" y="4.49286" width="75.0365" height="76.5071" filterUnits="userSpaceOnUse" color-interpolation-filters="sRGB">
<feFlood flood-opacity="0" result="BackgroundImageFix"/>
<feGaussianBlur in="BackgroundImageFix" stdDeviation="12"/>
<feComposite in2="SourceAlpha" operator="in" result="effect1_backgroundBlur_218_265"/>
<feBlend mode="normal" in="SourceGraphic" in2="effect1_backgroundBlur_218_265" result="shape"/>
</filter>
<filter id="filter2_bd_218_265" x="20.8193" y="20.6563" width="43.1997" height="44.137" filterUnits="userSpaceOnUse" color-interpolation-filters="sRGB">
<feFlood flood-opacity="0" result="BackgroundImageFix"/>
<feGaussianBlur in="BackgroundImageFix" stdDeviation="7.5"/>
<feComposite in2="SourceAlpha" operator="in" result="effect1_backgroundBlur_218_265"/>
<feColorMatrix in="SourceAlpha" type="matrix" values="0 0 0 0 0 0 0 0 0 0 0 0 0 0 0 0 0 0 127 0" result="hardAlpha"/>
<feOffset dx="5" dy="5"/>
<feGaussianBlur stdDeviation="5"/>
<feColorMatrix type="matrix" values="0 0 0 0 0.577356 0 0 0 0 0.359375 0 0 0 0 0.9375 0 0 0 0.5 0"/>
<feBlend mode="normal" in2="effect1_backgroundBlur_218_265" result="effect2_dropShadow_218_265"/>
<feBlend mode="normal" in="SourceGraphic" in2="effect2_dropShadow_218_265" result="shape"/>
</filter>
<linearGradient id="paint0_linear_218_265" x1="32.0917" y1="24.0873" x2="38.6694" y2="49.85" gradientUnits="userSpaceOnUse">
<stop stop-color="#BC94FF"/>
<stop offset="1" stop-color="#9F66FF"/>
</linearGradient>
<linearGradient id="paint1_linear_218_265" x1="33.9489" y1="32.581" x2="51.0354" y2="52.569" gradientUnits="userSpaceOnUse">
<stop stop-color="white" stop-opacity="0.25"/>
<stop offset="1" stop-color="white" stop-opacity="0"/>
</linearGradient>
<linearGradient id="paint2_linear_218_265" x1="48.0832" y1="38.2092" x2="33.378" y2="38.6568" gradientUnits="userSpaceOnUse">
<stop stop-color="white"/>
<stop offset="1" stop-color="white" stop-opacity="0.2"/>
</linearGradient>
<linearGradient id="paint3_linear_218_265" x1="37.9205" y1="37.3033" x2="47.049" y2="47.8595" gradientUnits="userSpaceOnUse">
<stop stop-color="white" stop-opacity="0.25"/>
<stop offset="1" stop-color="white" stop-opacity="0"/>
</linearGradient>
</defs>
</svg>
