<svg width="58" height="57" viewBox="0 0 58 57" fill="none" xmlns="http://www.w3.org/2000/svg">
<path d="M36.1663 15.135C34.6105 14.3026 32.7961 14.1591 31.1431 14.7305L20.2383 17.7354C18.5172 18.0938 17.0157 19.151 16.073 20.6719C15.2636 22.2719 15.124 24.1377 15.6827 25.8497L18.6046 37.0641C18.9532 38.834 19.9812 40.3781 21.4601 41.3475C23.0159 42.1799 24.8303 42.3234 26.495 41.7489L37.3998 38.744C39.1092 38.3888 40.6224 37.3284 41.565 35.8075C42.3628 34.2107 42.514 32.3416 41.9553 30.6296L39.0334 19.4153C38.6732 17.6486 37.6452 16.1045 36.1663 15.135Z" fill="url(#paint0_linear_218_224)"/>
<g opacity="0.5" filter="url(#filter0_f_218_224)">
<path d="M30.6609 18.2955L22.4373 20.6545C19.4544 21.5102 18.146 23.5877 18.8801 26.294L21.3661 35.4597C22.1122 38.2103 24.2677 39.256 27.2506 38.4003L35.4742 36.0413C38.5052 35.1719 39.7742 33.1439 39.0281 30.3933L36.542 21.2275C35.808 18.5213 33.6919 17.426 30.6609 18.2955Z" fill="#30AD31"/>
</g>
<g filter="url(#filter1_b_218_224)">
<mask id="path-3-outside-1_218_224" maskUnits="userSpaceOnUse" x="17" y="19.9496" width="29" height="30" fill="black">
<rect fill="white" x="17" y="19.9496" width="29" height="30"/>
<path d="M42.4508 22.8417C41.045 21.5176 39.1793 20.842 37.2874 20.9636H25.0163C23.1112 20.842 21.2456 21.5176 19.8398 22.8417C18.5523 24.2874 17.8953 26.206 18.0136 28.1651V40.7846C17.8953 42.7437 18.5523 44.6623 19.8398 46.108C21.2456 47.4321 23.1112 48.1076 25.0163 47.986H37.2874C39.1793 48.1076 41.0581 47.4321 42.4639 46.108C43.7383 44.6623 44.4084 42.7437 44.2901 40.7846V28.1651C44.3952 26.206 43.7383 24.2874 42.4508 22.8417Z"/>
</mask>
<path d="M42.4508 22.8417C41.045 21.5176 39.1793 20.842 37.2874 20.9636H25.0163C23.1112 20.842 21.2456 21.5176 19.8398 22.8417C18.5523 24.2874 17.8953 26.206 18.0136 28.1651V40.7846C17.8953 42.7437 18.5523 44.6623 19.8398 46.108C21.2456 47.4321 23.1112 48.1076 25.0163 47.986H37.2874C39.1793 48.1076 41.0581 47.4321 42.4639 46.108C43.7383 44.6623 44.4084 42.7437 44.2901 40.7846V28.1651C44.3952 26.206 43.7383 24.2874 42.4508 22.8417Z" fill="#72DC60" fill-opacity="0.35"/>
<path d="M41.7651 23.5696C42.1672 23.9483 42.8 23.9294 43.1787 23.5273C43.5574 23.1253 43.5384 22.4924 43.1364 22.1137L41.7651 23.5696ZM37.2874 20.9636V21.9636C37.3088 21.9636 37.3302 21.9629 37.3516 21.9616L37.2874 20.9636ZM25.0163 20.9636L24.9526 21.9616C24.9738 21.9629 24.995 21.9636 25.0163 21.9636V20.9636ZM19.8398 22.8417L19.1542 22.1137C19.1329 22.1338 19.1125 22.1548 19.093 22.1766L19.8398 22.8417ZM18.0136 28.1651H19.0136C19.0136 28.145 19.013 28.1249 19.0118 28.1049L18.0136 28.1651ZM18.0136 40.7846L19.0118 40.8448C19.013 40.8248 19.0136 40.8047 19.0136 40.7846H18.0136ZM19.8398 46.108L19.093 46.7731C19.1125 46.7949 19.1329 46.8159 19.1542 46.8359L19.8398 46.108ZM25.0163 47.986V46.986C24.995 46.986 24.9738 46.9867 24.9526 46.9881L25.0163 47.986ZM37.2874 47.986L37.3516 46.9881C37.3302 46.9867 37.3088 46.986 37.2874 46.986V47.986ZM42.4639 46.108L43.1496 46.8359C43.1721 46.8147 43.1936 46.7925 43.2141 46.7693L42.4639 46.108ZM44.2901 40.7846H43.2901C43.2901 40.8047 43.2907 40.8248 43.2919 40.8448L44.2901 40.7846ZM44.2901 28.1651L43.2916 28.1115C43.2906 28.1294 43.2901 28.1472 43.2901 28.1651H44.2901ZM43.1975 22.1766C42.8302 21.7642 42.1981 21.7276 41.7857 22.0949C41.3733 22.4622 41.3367 23.0943 41.704 23.5068L43.1975 22.1766ZM43.1364 22.1137C41.5319 20.6025 39.3958 19.826 37.2233 19.9657L37.3516 21.9616C38.9629 21.858 40.5581 22.4327 41.7651 23.5696L43.1364 22.1137ZM37.2874 19.9636H25.0163V21.9636H37.2874V19.9636ZM25.08 19.9657C22.8956 19.8262 20.7595 20.6018 19.1542 22.1137L20.5255 23.5696C21.7318 22.4334 23.3268 21.8578 24.9526 21.9616L25.08 19.9657ZM19.093 22.1766C17.6253 23.8246 16.8814 26.0055 17.0154 28.2253L19.0118 28.1049C18.9093 26.4065 19.4792 24.7502 20.5866 23.5068L19.093 22.1766ZM17.0136 28.1651V40.7846H19.0136V28.1651H17.0136ZM17.0154 40.7243C16.8814 42.9442 17.6253 45.1251 19.093 46.7731L20.5866 45.4429C19.4792 44.1995 18.9093 42.5432 19.0118 40.8448L17.0154 40.7243ZM19.1542 46.8359C20.7595 48.3479 22.8956 49.1234 25.08 48.984L24.9526 46.9881C23.3268 47.0918 21.7318 46.5163 20.5255 45.38L19.1542 46.8359ZM25.0163 48.986H37.2874V46.986H25.0163V48.986ZM37.2233 48.984C39.3941 49.1235 41.5438 48.3484 43.1496 46.8359L41.7783 45.38C40.5725 46.5158 38.9646 47.0918 37.3516 46.9881L37.2233 48.984ZM43.2141 46.7693C44.6625 45.1262 45.4226 42.9485 45.2883 40.7243L43.2919 40.8448C43.3942 42.5389 42.8142 44.1984 41.7138 45.4467L43.2141 46.7693ZM45.2901 40.7846V28.1651H43.2901V40.7846H45.2901ZM45.2887 28.2187C45.4075 26.0035 44.6653 23.8247 43.1975 22.1766L41.704 23.5068C42.8113 24.7501 43.3829 26.4085 43.2916 28.1115L45.2887 28.2187Z" fill="url(#paint1_linear_218_224)" mask="url(#path-3-outside-1_218_224)"/>
</g>
<g filter="url(#filter2_bd_218_224)">
<mask id="path-5-inside-2_218_224" fill="white">
<path d="M38.6531 31.9083L29.8111 41.0284C29.3512 41.4877 28.7469 41.7444 28.1162 41.7444H25.0288C24.858 41.7444 24.7003 41.6769 24.5821 41.5553C24.4638 41.4337 24.4113 41.2716 24.4113 41.0959L24.4901 37.8938C24.5032 37.2587 24.7528 36.6642 25.1864 36.2184L31.4534 29.7735C31.5585 29.6654 31.7424 29.6654 31.8475 29.7735L34.0416 32.0164C34.1861 32.165 34.3963 32.2596 34.6197 32.2596C35.1058 32.2596 35.4868 31.8542 35.4868 31.3678C35.4868 31.1246 35.3948 30.9085 35.2503 30.7463C35.2109 30.6923 33.1219 28.5575 33.1219 28.5575C32.9905 28.4224 32.9905 28.1927 33.1219 28.0576L34.0022 27.1388C34.8168 26.3011 36.1306 26.3011 36.9452 27.1388L38.6531 28.8953C39.4546 29.7195 39.4546 31.0706 38.6531 31.9083Z"/>
</mask>
<path d="M38.6531 31.9083L29.8111 41.0284C29.3512 41.4877 28.7469 41.7444 28.1162 41.7444H25.0288C24.858 41.7444 24.7003 41.6769 24.5821 41.5553C24.4638 41.4337 24.4113 41.2716 24.4113 41.0959L24.4901 37.8938C24.5032 37.2587 24.7528 36.6642 25.1864 36.2184L31.4534 29.7735C31.5585 29.6654 31.7424 29.6654 31.8475 29.7735L34.0416 32.0164C34.1861 32.165 34.3963 32.2596 34.6197 32.2596C35.1058 32.2596 35.4868 31.8542 35.4868 31.3678C35.4868 31.1246 35.3948 30.9085 35.2503 30.7463C35.2109 30.6923 33.1219 28.5575 33.1219 28.5575C32.9905 28.4224 32.9905 28.1927 33.1219 28.0576L34.0022 27.1388C34.8168 26.3011 36.1306 26.3011 36.9452 27.1388L38.6531 28.8953C39.4546 29.7195 39.4546 31.0706 38.6531 31.9083Z" fill="url(#paint2_linear_218_224)"/>
<path d="M29.8111 41.0284L29.9525 41.1699L29.9547 41.1676L29.8111 41.0284ZM24.4113 41.0959L24.2113 41.091V41.0959H24.4113ZM24.4901 37.8938L24.69 37.8987L24.69 37.8979L24.4901 37.8938ZM25.1864 36.2184L25.3298 36.3578L25.1864 36.2184ZM31.4534 29.7735L31.31 29.6341L31.4534 29.7735ZM31.8475 29.7735L31.7041 29.9129L31.7045 29.9134L31.8475 29.7735ZM34.0416 32.0164L34.185 31.8769L34.1846 31.8765L34.0416 32.0164ZM35.2503 30.7463L35.0887 30.8642L35.0945 30.8721L35.101 30.8794L35.2503 30.7463ZM33.1219 28.5575L32.9785 28.6969L32.979 28.6974L33.1219 28.5575ZM33.1219 28.0576L33.2653 28.197L33.2663 28.196L33.1219 28.0576ZM34.0022 27.1388L33.8588 26.9994L33.8578 27.0005L34.0022 27.1388ZM36.9452 27.1388L36.8018 27.2783L36.9452 27.1388ZM38.6531 28.8953L38.7965 28.7559L38.6531 28.8953ZM38.5095 31.7691L29.6675 40.8891L29.9547 41.1676L38.7967 32.0475L38.5095 31.7691ZM29.6697 40.8869C29.2458 41.3104 28.6916 41.5444 28.1162 41.5444V41.9444C28.8021 41.9444 29.4567 41.6651 29.9524 41.1698L29.6697 40.8869ZM28.1162 41.5444H25.0288V41.9444H28.1162V41.5444ZM25.0288 41.5444C24.9125 41.5444 24.8064 41.4991 24.7254 41.4159L24.4387 41.6947C24.5942 41.8546 24.8034 41.9444 25.0288 41.9444V41.5444ZM24.7254 41.4159C24.6513 41.3396 24.6113 41.2318 24.6113 41.0959H24.2113C24.2113 41.3113 24.2764 41.5278 24.4387 41.6947L24.7254 41.4159ZM24.6112 41.1008L24.69 37.8987L24.2901 37.8888L24.2113 41.091L24.6112 41.1008ZM24.69 37.8979C24.7021 37.3132 24.9318 36.7671 25.3298 36.3578L25.043 36.0789C24.5739 36.5614 24.3043 37.2043 24.2901 37.8896L24.69 37.8979ZM25.3298 36.3578L31.5968 29.9129L31.31 29.6341L25.043 36.0789L25.3298 36.3578ZM31.5968 29.9129C31.6233 29.8856 31.6776 29.8856 31.7041 29.9129L31.9909 29.6341C31.8073 29.4452 31.4936 29.4452 31.31 29.6341L31.5968 29.9129ZM31.7045 29.9134L33.8986 32.1562L34.1846 31.8765L31.9905 29.6337L31.7045 29.9134ZM33.8982 32.1558C34.0794 32.3421 34.3408 32.4596 34.6197 32.4596V32.0596C34.4518 32.0596 34.2929 31.9879 34.185 31.8769L33.8982 32.1558ZM34.6197 32.4596C35.2234 32.4596 35.6868 31.9574 35.6868 31.3678H35.2868C35.2868 31.7511 34.9882 32.0596 34.6197 32.0596V32.4596ZM35.6868 31.3678C35.6868 31.0728 35.5749 30.8099 35.3996 30.6132L35.101 30.8794C35.2148 31.007 35.2868 31.1764 35.2868 31.3678H35.6868ZM35.4119 30.6285C35.4001 30.6122 35.3775 30.5885 35.3657 30.5759C35.3476 30.5566 35.3226 30.5303 35.292 30.4984C35.2307 30.4344 35.1455 30.3463 35.0447 30.2423C34.8431 30.0343 34.5781 29.7623 34.3145 29.492C34.0509 29.2217 33.7885 28.9531 33.592 28.7521C33.4937 28.6516 33.412 28.568 33.3547 28.5095C33.3261 28.4802 33.3037 28.4573 33.2884 28.4416C33.2807 28.4338 33.2748 28.4278 33.2709 28.4238C33.2689 28.4217 33.2674 28.4202 33.2664 28.4192C33.2659 28.4187 33.2655 28.4183 33.2653 28.418C33.2651 28.4179 33.265 28.4178 33.265 28.4177C33.2649 28.4177 33.2649 28.4177 33.2649 28.4177C33.2649 28.4176 33.2649 28.4176 33.1219 28.5575C32.979 28.6974 32.979 28.6974 32.979 28.6974C32.979 28.6974 32.979 28.6975 32.9791 28.6975C32.9791 28.6975 32.9792 28.6976 32.9794 28.6978C32.9796 28.698 32.98 28.6984 32.9805 28.6989C32.9815 28.7 32.983 28.7015 32.985 28.7035C32.9889 28.7075 32.9948 28.7135 33.0024 28.7214C33.0177 28.737 33.0402 28.76 33.0688 28.7892C33.126 28.8477 33.2077 28.9312 33.3059 29.0317C33.5024 29.2327 33.7647 29.5011 34.0282 29.7713C34.2917 30.0415 34.5564 30.3132 34.7575 30.5207C34.8582 30.6245 34.9427 30.712 35.0032 30.7751C35.0334 30.8067 35.0574 30.8319 35.0741 30.8497C35.0973 30.8744 35.0957 30.8737 35.0887 30.8642L35.4119 30.6285ZM33.2653 28.4181C33.2094 28.3606 33.2094 28.2545 33.2653 28.197L32.9785 27.9182C32.7717 28.1309 32.7717 28.4842 32.9785 28.6969L33.2653 28.4181ZM33.2663 28.196L34.1466 27.2772L33.8578 27.0005L32.9775 27.9192L33.2663 28.196ZM34.1456 27.2783C34.8816 26.5213 36.0657 26.5213 36.8018 27.2783L37.0885 26.9994C36.1954 26.0809 34.7519 26.0809 33.8588 26.9994L34.1456 27.2783ZM36.8018 27.2783L38.5098 29.0347L38.7965 28.7559L37.0885 26.9994L36.8018 27.2783ZM38.5098 29.0347C39.2351 29.7806 39.2367 31.009 38.5086 31.77L38.7977 32.0465C39.6725 31.1322 39.6741 29.6583 38.7965 28.7559L38.5098 29.0347Z" fill="url(#paint3_linear_218_224)" fill-opacity="0.5" mask="url(#path-5-inside-2_218_224)"/>
</g>
<defs>
<filter id="filter0_f_218_224" x="0.680054" y="0.00299072" width="56.5569" height="56.6884" filterUnits="userSpaceOnUse" color-interpolation-filters="sRGB">
<feFlood flood-opacity="0" result="BackgroundImageFix"/>
<feBlend mode="normal" in="SourceGraphic" in2="BackgroundImageFix" result="shape"/>
<feGaussianBlur stdDeviation="9" result="effect1_foregroundBlur_218_224"/>
</filter>
<filter id="filter1_b_218_224" x="-7" y="-4.05035" width="76.3035" height="77.0504" filterUnits="userSpaceOnUse" color-interpolation-filters="sRGB">
<feFlood flood-opacity="0" result="BackgroundImageFix"/>
<feGaussianBlur in="BackgroundImageFix" stdDeviation="12"/>
<feComposite in2="SourceAlpha" operator="in" result="effect1_backgroundBlur_218_224"/>
<feBlend mode="normal" in="SourceGraphic" in2="effect1_backgroundBlur_218_224" result="shape"/>
</filter>
<filter id="filter2_bd_218_224" x="9.41125" y="11.5106" width="44.843" height="45.2339" filterUnits="userSpaceOnUse" color-interpolation-filters="sRGB">
<feFlood flood-opacity="0" result="BackgroundImageFix"/>
<feGaussianBlur in="BackgroundImageFix" stdDeviation="7.5"/>
<feComposite in2="SourceAlpha" operator="in" result="effect1_backgroundBlur_218_224"/>
<feColorMatrix in="SourceAlpha" type="matrix" values="0 0 0 0 0 0 0 0 0 0 0 0 0 0 0 0 0 0 127 0" result="hardAlpha"/>
<feOffset dx="5" dy="5"/>
<feGaussianBlur stdDeviation="5"/>
<feColorMatrix type="matrix" values="0 0 0 0 0.454902 0 0 0 0 0.870588 0 0 0 0 0.376471 0 0 0 0.5 0"/>
<feBlend mode="normal" in2="effect1_backgroundBlur_218_224" result="effect2_dropShadow_218_224"/>
<feBlend mode="normal" in="SourceGraphic" in2="effect2_dropShadow_218_224" result="shape"/>
</filter>
<linearGradient id="paint0_linear_218_224" x1="37.3747" y1="13" x2="25.5332" y2="37.1066" gradientUnits="userSpaceOnUse">
<stop stop-color="#9BF763"/>
<stop offset="1" stop-color="#26AB5B"/>
</linearGradient>
<linearGradient id="paint1_linear_218_224" x1="22.1871" y1="24.101" x2="39.5379" y2="44.9972" gradientUnits="userSpaceOnUse">
<stop stop-color="white" stop-opacity="0.25"/>
<stop offset="1" stop-color="white" stop-opacity="0"/>
</linearGradient>
<linearGradient id="paint2_linear_218_224" x1="38.2019" y1="29.2615" x2="21.6673" y2="29.7868" gradientUnits="userSpaceOnUse">
<stop stop-color="white"/>
<stop offset="1" stop-color="white" stop-opacity="0.2"/>
</linearGradient>
<linearGradient id="paint3_linear_218_224" x1="26.0102" y1="31.6208" x2="38.6139" y2="31.6886" gradientUnits="userSpaceOnUse">
<stop stop-color="white"/>
<stop offset="1" stop-color="white" stop-opacity="0"/>
</linearGradient>
</defs>
</svg>
