<svg width="20" height="22" viewBox="0 0 20 22" fill="none" xmlns="http://www.w3.org/2000/svg">
<path d="M8 1C8 0.447715 7.55228 0 7 0C6.44772 0 6 0.447715 6 1L6 21C6 21.5523 6.44772 22 7 22C7.55229 22 8 21.5523 8 21L8 1Z" fill="#1B434D"/>
<path d="M4 3C4.55228 3 5 3.44772 5 4L5 18C5 18.5523 4.55229 19 4 19C3.44772 19 3 18.5523 3 18L3 4C3 3.44772 3.44772 3 4 3Z" fill="#1B434D"/>
<path d="M1 7C1.55228 7 2 7.44772 2 8V14C2 14.5523 1.55228 15 1 15C0.447715 15 0 14.5523 0 14V8C0 7.44772 0.447715 7 1 7Z" fill="#1B434D"/>
<path d="M10 7C10.5523 7 11 7.44772 11 8V14C11 14.5523 10.5523 15 10 15C9.44772 15 9 14.5523 9 14V8C9 7.44772 9.44771 7 10 7Z" fill="#1B434D"/>
<path d="M14 5C14 4.44772 13.5523 4 13 4C12.4477 4 12 4.44772 12 5V17C12 17.5523 12.4477 18 13 18C13.5523 18 14 17.5523 14 17V5Z" fill="#1B434D"/>
<path d="M16 6C16.5523 6 17 6.44772 17 7V15C17 15.5523 16.5523 16 16 16C15.4477 16 15 15.5523 15 15V7C15 6.44772 15.4477 6 16 6Z" fill="#1B434D"/>
<path d="M20 10C20 9.44771 19.5523 9 19 9C18.4477 9 18 9.44771 18 10V12C18 12.5523 18.4477 13 19 13C19.5523 13 20 12.5523 20 12V10Z" fill="#1B434D"/>
</svg>
