<svg width="30" height="30" viewBox="0 0 30 30" fill="none" xmlns="http://www.w3.org/2000/svg">
<path d="M16.1 26.0751H8.5125C4.075 26.0751 2.5 22.9625 2.5 20.0625V9.93755C2.5 5.61255 4.1875 3.92505 8.5125 3.92505H16.1C20.425 3.92505 22.1125 5.61255 22.1125 9.93755V20.0625C22.1125 24.3875 20.425 26.0751 16.1 26.0751ZM8.5125 5.82505C5.25 5.82505 4.4 6.67505 4.4 9.93755V20.0625C4.4 21.6 4.9375 24.175 8.5125 24.175H16.1C19.3625 24.175 20.2125 23.325 20.2125 20.0625V9.93755C20.2125 6.67505 19.3625 5.82505 16.1 5.82505H8.5125V5.82505Z" fill="#BA0F43"/>
<path d="M25.9749 22.6375C25.4374 22.6375 24.7499 22.4625 23.9624 21.9125L20.6249 19.575C20.3749 19.4 20.2249 19.1125 20.2249 18.8V11.2C20.2249 10.8875 20.3749 10.6 20.6249 10.425L23.9624 8.08749C25.4499 7.04999 26.5374 7.34999 27.0499 7.61249C27.5624 7.88749 28.4374 8.59999 28.4374 10.4125V19.575C28.4374 21.3875 27.5624 22.1125 27.0499 22.375C26.8124 22.5125 26.4374 22.6375 25.9749 22.6375ZM22.1124 18.3L25.0499 20.35C25.6124 20.7375 26.0124 20.775 26.1749 20.6875C26.3499 20.6 26.5374 20.25 26.5374 19.575V10.425C26.5374 9.73749 26.3374 9.39999 26.1749 9.31249C26.0124 9.22499 25.6124 9.26249 25.0499 9.64999L22.1124 11.7V18.3Z" fill="#BA0F43"/>
<path d="M14.375 14.6875C12.825 14.6875 11.5625 13.425 11.5625 11.875C11.5625 10.325 12.825 9.0625 14.375 9.0625C15.925 9.0625 17.1875 10.325 17.1875 11.875C17.1875 13.425 15.925 14.6875 14.375 14.6875ZM14.375 10.9375C13.8625 10.9375 13.4375 11.3625 13.4375 11.875C13.4375 12.3875 13.8625 12.8125 14.375 12.8125C14.8875 12.8125 15.3125 12.3875 15.3125 11.875C15.3125 11.3625 14.8875 10.9375 14.375 10.9375Z" fill="#BA0F43"/>
</svg>
