<svg width="32" height="31" viewBox="0 0 32 31" fill="none" xmlns="http://www.w3.org/2000/svg">
<path d="M13.0001 21.0938V22.0312C13.0001 23.5846 14.3432 24.375 16.0001 24.375C17.6569 24.375 19.0001 23.5846 19.0001 22.0312V21.0938M10 12.6562C10 9.54965 12.6863 7.96875 16.0001 7.96875C19.3138 7.96875 22.0001 9.54965 22.0001 12.6562C22.0001 14.4742 22.7051 16.5125 23.4316 18.1302C24.0349 19.4735 23.0223 21.0938 21.4677 21.0938H10.5324C8.97784 21.0938 7.96524 19.4735 8.56848 18.1302C9.29499 16.5125 10 14.4742 10 12.6562Z" stroke="#054E45" stroke-width="1.5" stroke-linecap="round" stroke-linejoin="round"/>
<path d="M16 30.5C24.5295 30.5 31.5 24.0101 31.5 15.9375C31.5 7.86495 24.5295 1.375 16 1.375C7.47047 1.375 0.5 7.86495 0.5 15.9375C0.5 24.0101 7.47047 30.5 16 30.5Z" stroke="#054E45"/>
<ellipse cx="6" cy="4.6875" rx="5" ry="4.6875" fill="#BA0F43"/>
</svg>
