<svg width="248" height="47" viewBox="0 0 248 47" fill="none" xmlns="http://www.w3.org/2000/svg">
<path d="M0.902344 9.98438V8.95312C0.902344 6.11719 1.62109 4.01953 3.05859 2.66016C4.50391 1.30078 6.42188 0.621094 8.8125 0.621094C11.0312 0.621094 12.793 1.16797 14.0977 2.26172C15.4023 3.34766 16.0547 4.85547 16.0547 6.78516V7.44141H11.2617V6.57422C11.2617 5.72266 11.0586 5.09766 10.6523 4.69922C10.2461 4.30078 9.625 4.10156 8.78906 4.10156C7.91406 4.10156 7.22266 4.38672 6.71484 4.95703C6.21484 5.52734 5.96484 6.54297 5.96484 8.00391V10.9336C5.96484 12.3164 6.20703 13.3164 6.69141 13.9336C7.18359 14.5508 7.90625 14.8594 8.85938 14.8594C9.66406 14.8594 10.2617 14.6367 10.6523 14.1914C11.043 13.7461 11.2461 13.0938 11.2617 12.2344V11.5312H16.0547V12.2812C16.0391 14.1172 15.3828 15.582 14.0859 16.6758C12.7891 17.7695 11.0312 18.3164 8.8125 18.3164C6.39062 18.3164 4.46484 17.6289 3.03516 16.2539C1.61328 14.8711 0.902344 12.7812 0.902344 9.98438ZM15.9844 18L22.2305 0.890625H27.5508L33.8906 18H28.7812L24.9609 6.9375C24.8672 6.66406 24.7969 6.40625 24.75 6.16406C24.7031 5.92188 24.6602 5.69922 24.6211 5.49609H24.5391C24.5078 5.69922 24.4648 5.92578 24.4102 6.17578C24.3633 6.41797 24.2969 6.67188 24.2109 6.9375L20.4609 18H15.9844ZM20.1328 14.9062L21.0117 11.5664H28.4648L29.3672 14.9062H20.1328ZM34.9102 18V0.9375H39.75V7.33594H44.6953V0.9375H49.5234V18H44.6953V11.0742H39.75V18H34.9102ZM64.2188 21.3984V18H55.6758V21.3984H51.1055V14.3555H68.7891V21.3984H64.2188ZM53.8594 0.9375H66.8555V18H62.0156V4.58203H57.832L57.6562 9.41016C57.6016 11.043 57.4609 12.3555 57.2344 13.3477C57.0156 14.3398 56.6484 15.2852 56.1328 16.1836H51.7734C52.3594 15.1289 52.7773 14.1289 53.0273 13.1836C53.2852 12.2383 53.4492 10.8867 53.5195 9.12891L53.8594 0.9375ZM68.4844 18L74.7305 0.890625H80.0508L86.3906 18H81.2812L77.4609 6.9375C77.3672 6.66406 77.2969 6.40625 77.25 6.16406C77.2031 5.92188 77.1602 5.69922 77.1211 5.49609H77.0391C77.0078 5.69922 76.9648 5.92578 76.9102 6.17578C76.8633 6.41797 76.7969 6.67188 76.7109 6.9375L72.9609 18H68.4844ZM72.6328 14.9062L73.5117 11.5664H80.9648L81.8672 14.9062H72.6328ZM87.4102 18V0.9375H94.8984C96.9062 0.9375 98.4492 1.44141 99.5273 2.44922C100.613 3.45703 101.156 4.91016 101.156 6.80859C101.156 8.70703 100.617 10.1641 99.5391 11.1797C98.4688 12.1953 96.9102 12.7031 94.8633 12.7031H92.25V18H87.4102ZM92.25 9.31641H94.1016C94.9453 9.31641 95.5273 9.10938 95.8477 8.69531C96.168 8.28125 96.3281 7.66797 96.3281 6.85547C96.3281 6.04297 96.168 5.43359 95.8477 5.02734C95.5273 4.62109 94.9453 4.41797 94.1016 4.41797H92.25V9.31641ZM115.793 37.9844V36.9531C115.793 34.1172 116.512 32.0195 117.949 30.6602C119.395 29.3008 121.312 28.6211 123.703 28.6211C125.922 28.6211 127.684 29.168 128.988 30.2617C130.293 31.3477 130.945 32.8555 130.945 34.7852V35.4414H126.152V34.5742C126.152 33.7227 125.949 33.0977 125.543 32.6992C125.137 32.3008 124.516 32.1016 123.68 32.1016C122.805 32.1016 122.113 32.3867 121.605 32.957C121.105 33.5273 120.855 34.543 120.855 36.0039V38.9336C120.855 40.3164 121.098 41.3164 121.582 41.9336C122.074 42.5508 122.797 42.8594 123.75 42.8594C124.555 42.8594 125.152 42.6367 125.543 42.1914C125.934 41.7461 126.137 41.0938 126.152 40.2344V39.5312H130.945V40.2812C130.93 42.1172 130.273 43.582 128.977 44.6758C127.68 45.7695 125.922 46.3164 123.703 46.3164C121.281 46.3164 119.355 45.6289 117.926 44.2539C116.504 42.8711 115.793 40.7812 115.793 37.9844ZM136.699 46V40.0352L130.875 28.9375H136.184L138.914 34.3281C139.008 34.5312 139.09 34.7305 139.16 34.9258C139.23 35.1133 139.297 35.3086 139.359 35.5117H139.43C139.492 35.3086 139.559 35.1133 139.629 34.9258C139.699 34.7305 139.785 34.5312 139.887 34.3281L142.652 28.9375H147.199L141.562 39.7773V46H136.699ZM162.961 46H158.133V37.6445C158.133 37.3164 158.133 36.9805 158.133 36.6367C158.141 36.2852 158.152 35.9609 158.168 35.6641H158.062C157.945 35.9688 157.836 36.25 157.734 36.5078C157.633 36.7656 157.508 37.0781 157.359 37.4453L153.387 46H148.207V28.9375H153.035V37.2812C153.035 37.6172 153.031 37.9648 153.023 38.3242C153.016 38.6836 153.008 39.0039 153 39.2852H153.105C153.191 39.043 153.293 38.7656 153.41 38.4531C153.535 38.1406 153.668 37.8125 153.809 37.4688L157.781 28.9375H162.961V46ZM155.801 25.0586C156.457 25.0586 156.98 24.8828 157.371 24.5312C157.77 24.1719 158.074 23.582 158.285 22.7617L160.828 23.8984C160.391 25.1562 159.738 26.0664 158.871 26.6289C158.004 27.1914 156.98 27.4727 155.801 27.4727C154.605 27.4727 153.566 27.1914 152.684 26.6289C151.809 26.0586 151.156 25.1484 150.727 23.8984L153.246 22.7617C153.441 23.582 153.746 24.1719 154.16 24.5312C154.574 24.8828 155.121 25.0586 155.801 25.0586ZM167.812 28.9375H180.633V46H175.781V32.582H171.797L171.434 39.707C171.332 41.8633 170.91 43.5078 170.168 44.6406C169.434 45.7656 168.156 46.3281 166.336 46.3281C165.984 46.3281 165.66 46.3086 165.363 46.2695C165.074 46.2383 164.797 46.1836 164.531 46.1055V42.0977C164.695 42.1602 164.844 42.2031 164.977 42.2266C165.117 42.25 165.262 42.2617 165.41 42.2617C166.074 42.2617 166.539 42.0312 166.805 41.5703C167.078 41.1016 167.246 40.2734 167.309 39.0859L167.812 28.9375ZM185.426 35.7227H196.406V38.8633H185.426V35.7227ZM183.012 37.9844V36.9531C183.012 34.1484 183.746 32.0586 185.215 30.6836C186.684 29.3086 188.578 28.6211 190.898 28.6211C193.211 28.6211 195.109 29.3086 196.594 30.6836C198.078 32.0586 198.82 34.1484 198.82 36.9531V37.9844C198.82 40.7891 198.078 42.8789 196.594 44.2539C195.109 45.6289 193.211 46.3164 190.898 46.3164C188.578 46.3164 186.684 45.6289 185.215 44.2539C183.746 42.8789 183.012 40.7891 183.012 37.9844ZM187.828 38.8633C187.828 40.3164 188.098 41.3516 188.637 41.9688C189.184 42.5781 189.938 42.8828 190.898 42.8828C191.852 42.8828 192.605 42.5781 193.16 41.9688C193.723 41.3516 194.004 40.3164 194.004 38.8633V36.0859C194.004 34.6328 193.723 33.6016 193.16 32.9922C192.605 32.3828 191.852 32.0781 190.898 32.0781C189.938 32.0781 189.184 32.3828 188.637 32.9922C188.098 33.6016 187.828 34.6328 187.828 36.0859V38.8633ZM200.637 37.9844V36.9531C200.637 34.1172 201.355 32.0195 202.793 30.6602C204.238 29.3008 206.156 28.6211 208.547 28.6211C210.766 28.6211 212.527 29.168 213.832 30.2617C215.137 31.3477 215.789 32.8555 215.789 34.7852V35.4414H210.996V34.5742C210.996 33.7227 210.793 33.0977 210.387 32.6992C209.98 32.3008 209.359 32.1016 208.523 32.1016C207.648 32.1016 206.957 32.3867 206.449 32.957C205.949 33.5273 205.699 34.543 205.699 36.0039V38.9336C205.699 40.3164 205.941 41.3164 206.426 41.9336C206.918 42.5508 207.641 42.8594 208.594 42.8594C209.398 42.8594 209.996 42.6367 210.387 42.1914C210.777 41.7461 210.98 41.0938 210.996 40.2344V39.5312H215.789V40.2812C215.773 42.1172 215.117 43.582 213.82 44.6758C212.523 45.7695 210.766 46.3164 208.547 46.3164C206.125 46.3164 204.199 45.6289 202.77 44.2539C201.348 42.8711 200.637 40.7812 200.637 37.9844ZM221.543 46V40.0352L215.719 28.9375H221.027L223.758 34.3281C223.852 34.5312 223.934 34.7305 224.004 34.9258C224.074 35.1133 224.141 35.3086 224.203 35.5117H224.273C224.336 35.3086 224.402 35.1133 224.473 34.9258C224.543 34.7305 224.629 34.5312 224.73 34.3281L227.496 28.9375H232.043L226.406 39.7773V46H221.543ZM233.051 46V28.9375H237.891V35.3359H242.836V28.9375H247.664V46H242.836V39.0742H237.891V46H233.051Z" fill="url(#paint0_radial_194_132)"/>
<defs>
<radialGradient id="paint0_radial_194_132" cx="0" cy="0" r="1" gradientUnits="userSpaceOnUse" gradientTransform="translate(14.1243 8.1416) rotate(11.8883) scale(155.164 111.054)">
<stop stop-color="#BA0F43"/>
<stop offset="1" stop-color="#157D97"/>
</radialGradient>
</defs>
</svg>
