<svg width="300" height="264" viewBox="0 0 300 264" fill="none" xmlns="http://www.w3.org/2000/svg">
<rect y="2" width="300" height="262" rx="10" fill="#1B434D"/>
<path d="M0 5C0 2.23858 2.23858 0 5 0H295C297.761 0 300 2.23858 300 5V117H0V5Z" fill="#D9D9D9"/>
<path d="M37.3828 147L37.6875 145.273L42.2422 140.891C42.6901 140.464 43.0573 140.073 43.3438 139.719C43.6302 139.365 43.8073 139.008 43.875 138.648C43.9271 138.331 43.8932 138.083 43.7734 137.906C43.6589 137.729 43.4297 137.641 43.0859 137.641C42.7422 137.641 42.4635 137.76 42.25 138C42.0365 138.24 41.8828 138.635 41.7891 139.188L41.7344 139.508H38.625L38.7031 139.086C38.8958 137.992 39.4115 137.104 40.25 136.422C41.0938 135.74 42.1667 135.398 43.4688 135.398C44.9062 135.398 45.901 135.685 46.4531 136.258C47.0104 136.826 47.2083 137.589 47.0469 138.547C46.9062 139.323 46.5938 139.992 46.1094 140.555C45.6302 141.117 45.0677 141.706 44.4219 142.32L41.8516 144.695H46.1484L45.7422 147H37.3828ZM58.3438 147L55.5078 142.211L57.6875 140.242L61.8672 147H58.3438ZM54.0391 140.102H55.9688L60.4062 135.625H63.7422L56.4609 142.547H53.6094L54.0391 140.102ZM51.1172 147L53.125 135.625H56.1719L54.1641 147H51.1172ZM63.4062 144.586C63.5417 144.628 63.6979 144.661 63.875 144.688C64.0521 144.714 64.2266 144.727 64.3984 144.727C64.7943 144.727 65.1432 144.664 65.4453 144.539C65.7526 144.409 66.0365 144.167 66.2969 143.812L66.2188 143.867L63.6484 135.625H66.6797L67.8516 140.008C67.9505 140.393 68.013 140.677 68.0391 140.859C68.0651 141.036 68.0833 141.229 68.0938 141.438H68.1406C68.2188 141.234 68.3021 141.047 68.3906 140.875C68.4792 140.698 68.6354 140.419 68.8594 140.039L71.4453 135.625H74.1953L69.0938 143.891C68.3333 145.125 67.6042 145.99 66.9062 146.484C66.2083 146.979 65.375 147.227 64.4062 147.227C64.0365 147.227 63.7448 147.214 63.5312 147.188C63.3177 147.167 63.1276 147.13 62.9609 147.078L63.4062 144.586ZM73.2578 147L75.2656 135.625H80.0391C81.4036 135.625 82.3958 135.948 83.0156 136.594C83.6354 137.24 83.8359 138.198 83.6172 139.469C83.388 140.74 82.849 141.703 82 142.359C81.1562 143.016 80.0443 143.344 78.6641 143.344H76.9453L76.2969 147H73.2578ZM77.3281 141.164H78.6641C79.2839 141.164 79.7318 141.029 80.0078 140.758C80.2891 140.482 80.4792 140.057 80.5781 139.484C80.6771 138.917 80.6328 138.5 80.4453 138.234C80.263 137.964 79.862 137.828 79.2422 137.828H77.9141L77.3281 141.164ZM84.2578 141.664L84.3828 140.961C84.7109 139.091 85.4375 137.698 86.5625 136.781C87.6927 135.859 89.0625 135.398 90.6719 135.398C92.1562 135.398 93.2734 135.773 94.0234 136.523C94.7786 137.273 95.0443 138.279 94.8203 139.539L94.7656 139.836H91.7031L91.7656 139.469C91.8802 138.833 91.8099 138.37 91.5547 138.078C91.3047 137.786 90.8672 137.641 90.2422 137.641C89.5859 137.641 89.0312 137.849 88.5781 138.266C88.1302 138.677 87.8099 139.419 87.6172 140.492L87.3281 142.133C87.151 143.133 87.2031 143.859 87.4844 144.312C87.7708 144.766 88.2734 144.992 88.9922 144.992C89.5964 144.992 90.0729 144.831 90.4219 144.508C90.7708 144.185 91.0026 143.721 91.1172 143.117L91.1797 142.797H94.2422L94.1797 143.125C93.9453 144.359 93.3255 145.352 92.3203 146.102C91.3151 146.852 90.0703 147.227 88.5859 147.227C86.9661 147.227 85.7578 146.76 84.9609 145.828C84.1693 144.896 83.9349 143.508 84.2578 141.664ZM101.398 147L102.922 138.391L100.164 139.32L100.578 136.945L104.578 135.516H106.484L104.461 147H101.398ZM111.82 147L113.828 135.625H122.055L121.648 137.875H116.469L116.109 139.961H118.156C119.417 139.961 120.328 140.26 120.891 140.859C121.458 141.453 121.641 142.32 121.438 143.461C121.234 144.607 120.742 145.484 119.961 146.094C119.185 146.698 118.169 147 116.914 147H111.82ZM115.727 142.125L115.25 144.812H116.914C117.393 144.812 117.771 144.698 118.047 144.469C118.323 144.24 118.5 143.904 118.578 143.461C118.656 143.023 118.596 142.693 118.398 142.469C118.201 142.24 117.865 142.125 117.391 142.125H115.727ZM120.977 147L127.273 135.586H130.625L133.016 147H129.742L128.336 139.383C128.305 139.206 128.286 139.036 128.281 138.875C128.281 138.714 128.279 138.557 128.273 138.406H128.219C128.172 138.557 128.117 138.716 128.055 138.883C127.992 139.044 127.914 139.211 127.82 139.383L123.758 147H120.977ZM124.195 144.828L125.188 142.672H130.031L130.266 144.828H124.195ZM132.32 147L138.617 135.586H141.969L144.359 147H141.086L139.68 139.383C139.648 139.206 139.63 139.036 139.625 138.875C139.625 138.714 139.622 138.557 139.617 138.406H139.562C139.516 138.557 139.461 138.716 139.398 138.883C139.336 139.044 139.258 139.211 139.164 139.383L135.102 147H132.32ZM135.539 144.828L136.531 142.672H141.375L141.609 144.828H135.539ZM152.797 149.266L153.195 147H146.977L146.578 149.266H143.695L144.484 144.742H156.477L155.68 149.266H152.797ZM148.078 135.625H156.703L154.695 147H151.648L153.258 137.883H150.109L149.367 141.383C149.143 142.445 148.893 143.307 148.617 143.969C148.341 144.63 147.961 145.253 147.477 145.836H144.789C145.341 145.138 145.76 144.479 146.047 143.859C146.333 143.24 146.602 142.354 146.852 141.203L148.078 135.625ZM155.836 147L162.133 135.586H165.484L167.875 147H164.602L163.195 139.383C163.164 139.206 163.146 139.036 163.141 138.875C163.141 138.714 163.138 138.557 163.133 138.406H163.078C163.031 138.557 162.977 138.716 162.914 138.883C162.852 139.044 162.773 139.211 162.68 139.383L158.617 147H155.836ZM159.055 144.828L160.047 142.672H164.891L165.125 144.828H159.055Z" fill="white"/>
<path d="M133.695 186L135.219 177.391L132.461 178.32L132.875 175.945L136.875 174.516H138.781L136.758 186H133.695ZM140.164 181.82L140.695 178.805C140.93 177.487 141.469 176.424 142.312 175.617C143.161 174.805 144.273 174.398 145.648 174.398C147.034 174.398 148.008 174.802 148.57 175.609C149.138 176.411 149.305 177.477 149.07 178.805L148.539 181.82C148.305 183.148 147.758 184.216 146.898 185.023C146.039 185.826 144.93 186.227 143.57 186.227C142.185 186.227 141.211 185.826 140.648 185.023C140.091 184.216 139.93 183.148 140.164 181.82ZM143.258 182.156C143.164 182.714 143.159 183.161 143.242 183.5C143.331 183.833 143.573 184 143.969 184C144.365 184 144.667 183.833 144.875 183.5C145.083 183.161 145.237 182.714 145.336 182.156L145.984 178.484C146.078 177.917 146.078 177.469 145.984 177.141C145.896 176.807 145.656 176.641 145.266 176.641C144.875 176.641 144.576 176.807 144.367 177.141C144.159 177.469 144.005 177.917 143.906 178.484L143.258 182.156ZM160.422 186L157.586 181.211L159.766 179.242L163.945 186H160.422ZM156.117 179.102H158.047L162.484 174.625H165.82L158.539 181.547H155.688L156.117 179.102ZM153.195 186L155.203 174.625H158.25L156.242 186H153.195ZM174.727 186H171.688L172.734 180.062C172.766 179.87 172.805 179.654 172.852 179.414C172.898 179.169 172.943 178.948 172.984 178.75H172.922C172.797 178.953 172.68 179.143 172.57 179.32C172.466 179.492 172.341 179.69 172.195 179.914L168.203 186H164.867L166.875 174.625H169.914L168.867 180.555C168.831 180.753 168.789 180.977 168.742 181.227C168.701 181.471 168.659 181.688 168.617 181.875H168.688C168.776 181.724 168.883 181.544 169.008 181.336C169.138 181.122 169.268 180.914 169.398 180.711L173.398 174.625H176.734L174.727 186ZM177.602 176.875L178 174.625H187.414L187.023 176.875H183.836L182.227 186H179.18L180.781 176.875H177.602ZM186.664 186L188.672 174.625H196.695L196.297 176.875H191.273L190.891 179.07H195.203L194.82 181.258H190.5L190.062 183.766H195.172L194.773 186H186.664ZM196.352 186L198.359 174.625H208.039L206.031 186H202.984L204.594 176.883H201L199.398 186H196.352ZM212.18 186L214.188 174.625H222.414L222.008 176.875H216.828L216.469 178.961H218.516C219.776 178.961 220.688 179.26 221.25 179.859C221.818 180.453 222 181.32 221.797 182.461C221.594 183.607 221.102 184.484 220.32 185.094C219.544 185.698 218.529 186 217.273 186H212.18ZM216.086 181.125L215.609 183.812H217.273C217.753 183.812 218.13 183.698 218.406 183.469C218.682 183.24 218.859 182.904 218.938 182.461C219.016 182.023 218.956 181.693 218.758 181.469C218.56 181.24 218.224 181.125 217.75 181.125H216.086ZM222.789 186L224.797 174.625H232.82L232.422 176.875H227.398L227.016 179.07H231.328L230.945 181.258H226.625L226.188 183.766H231.297L230.898 186H222.789ZM235.844 174.625H244.328L242.32 186H239.281L240.883 176.883H237.883L236.75 181.805C236.417 183.227 235.935 184.32 235.305 185.086C234.68 185.846 233.758 186.227 232.539 186.227C232.367 186.227 232.185 186.216 231.992 186.195C231.799 186.18 231.615 186.146 231.438 186.094L231.875 183.594C231.984 183.635 232.089 183.664 232.188 183.68C232.281 183.69 232.38 183.695 232.484 183.695C232.969 183.695 233.339 183.529 233.594 183.195C233.854 182.857 234.086 182.247 234.289 181.367L235.844 174.625ZM244.523 186L246.531 174.625H254.555L254.156 176.875H249.133L248.75 179.07H253.062L252.68 181.258H248.359L247.922 183.766H253.031L252.633 186H244.523ZM261.438 186L258.602 181.211L260.781 179.242L264.961 186H261.438ZM257.133 179.102H259.062L263.5 174.625H266.836L259.555 181.547H256.703L257.133 179.102ZM254.211 186L256.219 174.625H259.266L257.258 186H254.211ZM273.109 186L270.273 181.211L272.453 179.242L276.633 186H273.109ZM268.805 179.102H270.734L275.172 174.625H278.508L271.227 181.547H268.375L268.805 179.102ZM265.883 186L267.891 174.625H270.938L268.93 186H265.883ZM277.555 186L279.562 174.625H287.586L287.188 176.875H282.164L281.781 179.07H286.094L285.711 181.258H281.391L280.953 183.766H286.062L285.664 186H277.555Z" fill="white"/>
<path d="M243.513 135.732L242.439 134.658C242.021 134.24 241.783 133.673 241.783 133.078V131.54C241.783 129.064 239.769 127.052 237.292 127.052H235.755C235.159 127.052 234.592 126.812 234.174 126.394L233.085 125.307C231.325 123.562 228.475 123.562 226.73 125.321L225.656 126.394C225.238 126.812 224.671 127.052 224.074 127.052H222.538C220.061 127.052 218.047 129.064 218.047 131.54V133.062C218.047 133.673 217.808 134.24 217.391 134.658L216.302 135.748C214.556 137.507 214.571 140.357 216.317 142.1L217.391 143.159C217.808 143.592 218.047 144.159 218.047 144.757V146.292C218.047 148.768 220.061 150.783 222.538 150.783H224.074C224.671 150.783 225.238 151.02 225.656 151.438L226.745 152.528C227.625 153.393 228.774 153.824 229.922 153.824C231.071 153.824 232.22 153.393 233.1 152.511L234.174 151.438C234.592 151.02 235.159 150.783 235.755 150.783H237.292C239.769 150.783 241.783 148.768 241.783 146.292V144.757C241.783 144.159 242.021 143.592 242.439 143.174L243.498 142.115C243.513 142.1 243.528 142.087 243.543 142.071C244.378 141.222 244.841 140.087 244.826 138.894C244.826 137.7 244.363 136.567 243.513 135.732Z" fill="url(#paint0_linear_306_129)"/>
<g opacity="0.5" filter="url(#filter0_f_306_129)">
<path d="M238.917 136.806L238.206 136.095C237.93 135.819 237.772 135.443 237.772 135.049V134.031C237.772 132.392 236.438 131.06 234.799 131.06H233.781C233.386 131.06 233.011 130.901 232.734 130.624L232.013 129.904C230.848 128.749 228.961 128.749 227.805 129.913L227.094 130.624C226.818 130.901 226.442 131.06 226.047 131.06H225.03C223.39 131.06 222.057 132.392 222.057 134.031V135.039C222.057 135.443 221.899 135.819 221.622 136.095L220.901 136.817C219.745 137.981 219.755 139.869 220.911 141.023L221.622 141.724C221.899 142.011 222.057 142.386 222.057 142.782V143.798C222.057 145.437 223.39 146.771 225.03 146.771H226.047C226.442 146.771 226.818 146.928 227.094 147.205L227.815 147.927C228.398 148.5 229.159 148.785 229.919 148.785C230.68 148.785 231.44 148.5 232.023 147.916L232.734 147.205C233.011 146.928 233.386 146.771 233.781 146.771H234.799C236.438 146.771 237.772 145.437 237.772 143.798V142.782C237.772 142.386 237.93 142.011 238.206 141.734L238.908 141.033C238.917 141.023 238.927 141.014 238.937 141.003C239.49 140.441 239.797 139.69 239.787 138.9C239.787 138.11 239.48 137.359 238.917 136.806Z" fill="#E46800"/>
</g>
<g filter="url(#filter1_b_306_129)">
<mask id="path-7-outside-1_306_129" maskUnits="userSpaceOnUse" x="219.174" y="128.176" width="32" height="32" fill="black">
<rect fill="white" x="219.174" y="128.176" width="32" height="32"/>
<path d="M248.687 140.908L247.613 139.834C247.195 139.416 246.956 138.849 246.956 138.254V136.716C246.956 134.24 244.942 132.228 242.466 132.228H240.929C240.332 132.228 239.766 131.988 239.348 131.57L238.259 130.483C236.498 128.738 233.649 128.738 231.903 130.497L230.829 131.57C230.412 131.988 229.845 132.228 229.248 132.228H227.711C225.235 132.228 223.221 134.24 223.221 136.716V138.238C223.221 138.849 222.982 139.416 222.564 139.834L221.475 140.924C219.73 142.682 219.745 145.533 221.49 147.276L222.564 148.335C222.982 148.768 223.221 149.335 223.221 149.933V151.468C223.221 153.944 225.235 155.959 227.711 155.959H229.248C229.845 155.959 230.412 156.196 230.829 156.614L231.918 157.704C232.799 158.569 233.947 159 235.096 159C236.245 159 237.393 158.569 238.274 157.687L239.348 156.614C239.766 156.196 240.332 155.959 240.929 155.959H242.466C244.942 155.959 246.956 153.944 246.956 151.468V149.933C246.956 149.335 247.195 148.768 247.613 148.35L248.672 147.291C248.687 147.276 248.702 147.263 248.717 147.247C249.552 146.398 250.015 145.263 250 144.07C250 142.876 249.537 141.743 248.687 140.908Z"/>
</mask>
<path d="M248.687 140.908L247.613 139.834C247.195 139.416 246.956 138.849 246.956 138.254V136.716C246.956 134.24 244.942 132.228 242.466 132.228H240.929C240.332 132.228 239.766 131.988 239.348 131.57L238.259 130.483C236.498 128.738 233.649 128.738 231.903 130.497L230.829 131.57C230.412 131.988 229.845 132.228 229.248 132.228H227.711C225.235 132.228 223.221 134.24 223.221 136.716V138.238C223.221 138.849 222.982 139.416 222.564 139.834L221.475 140.924C219.73 142.682 219.745 145.533 221.49 147.276L222.564 148.335C222.982 148.768 223.221 149.335 223.221 149.933V151.468C223.221 153.944 225.235 155.959 227.711 155.959H229.248C229.845 155.959 230.412 156.196 230.829 156.614L231.918 157.704C232.799 158.569 233.947 159 235.096 159C236.245 159 237.393 158.569 238.274 157.687L239.348 156.614C239.766 156.196 240.332 155.959 240.929 155.959H242.466C244.942 155.959 246.956 153.944 246.956 151.468V149.933C246.956 149.335 247.195 148.768 247.613 148.35L248.672 147.291C248.687 147.276 248.702 147.263 248.717 147.247C249.552 146.398 250.015 145.263 250 144.07C250 142.876 249.537 141.743 248.687 140.908Z" fill="#FFCBB9" fill-opacity="0.35"/>
<path d="M247.613 139.834L248.32 139.126L247.613 139.834ZM239.348 131.57L240.055 130.863L240.054 130.863L239.348 131.57ZM238.259 130.483L238.965 129.775L238.963 129.773L238.259 130.483ZM231.903 130.497L232.61 131.204L232.613 131.201L231.903 130.497ZM230.829 131.57L231.536 132.278L230.829 131.57ZM222.564 139.834L221.857 139.126L221.857 139.127L222.564 139.834ZM221.475 140.924L220.768 140.217L220.766 140.219L221.475 140.924ZM221.49 147.276L220.784 147.984L220.788 147.989L221.49 147.276ZM222.564 148.335L223.284 147.641C223.278 147.635 223.272 147.629 223.266 147.623L222.564 148.335ZM230.829 156.614L231.537 155.907L231.536 155.906L230.829 156.614ZM231.918 157.704L231.211 158.411L231.217 158.417L231.918 157.704ZM238.274 157.687L237.567 156.98L237.566 156.981L238.274 157.687ZM239.348 156.614L240.055 157.321V157.321L239.348 156.614ZM247.613 148.35L248.32 149.058L247.613 148.35ZM248.672 147.291L247.965 146.584L247.965 146.584L248.672 147.291ZM248.717 147.247L248.004 146.545C247.995 146.555 247.986 146.564 247.977 146.574L248.717 147.247ZM250 144.07H249L249 144.082L250 144.07ZM248.687 140.908L247.98 141.615L247.986 141.621L248.687 140.908ZM249.394 140.2L248.32 139.126L246.906 140.541L247.98 141.615L249.394 140.2ZM248.32 139.126C248.087 138.894 247.956 138.581 247.956 138.254H245.956C245.956 139.118 246.303 139.938 246.906 140.541L248.32 139.126ZM247.956 138.254V136.716H245.956V138.254H247.956ZM247.956 136.716C247.956 133.687 245.494 131.228 242.466 131.228V133.228C244.391 133.228 245.956 134.793 245.956 136.716H247.956ZM242.466 131.228H240.929V133.228H242.466V131.228ZM240.929 131.228C240.602 131.228 240.288 131.097 240.055 130.863L238.641 132.278C239.243 132.879 240.063 133.228 240.929 133.228V131.228ZM240.054 130.863L238.965 129.775L237.552 131.191L238.641 132.278L240.054 130.863ZM238.963 129.773C236.814 127.643 233.331 127.638 231.194 129.792L232.613 131.201C233.966 129.838 236.183 129.833 237.555 131.193L238.963 129.773ZM231.196 129.789L230.122 130.863L231.536 132.278L232.61 131.204L231.196 129.789ZM230.122 130.863C229.889 131.097 229.575 131.228 229.248 131.228V133.228C230.115 133.228 230.934 132.879 231.536 132.278L230.122 130.863ZM229.248 131.228H227.711V133.228H229.248V131.228ZM227.711 131.228C224.683 131.228 222.221 133.687 222.221 136.716H224.221C224.221 134.793 225.787 133.228 227.711 133.228V131.228ZM222.221 136.716V138.238H224.221V136.716H222.221ZM222.221 138.238C222.221 138.584 222.087 138.897 221.857 139.126L223.271 140.541C223.877 139.935 224.221 139.114 224.221 138.238H222.221ZM221.857 139.127L220.768 140.217L222.183 141.631L223.272 140.54L221.857 139.127ZM220.766 140.219C218.631 142.371 218.65 145.852 220.784 147.984L222.197 146.569C220.84 145.213 220.829 142.994 222.185 141.628L220.766 140.219ZM220.788 147.989L221.862 149.048L223.266 147.623L222.192 146.564L220.788 147.989ZM221.845 149.03C222.091 149.285 222.221 149.606 222.221 149.933H224.221C224.221 149.064 223.873 148.251 223.284 147.641L221.845 149.03ZM222.221 149.933V151.468H224.221V149.933H222.221ZM222.221 151.468C222.221 154.496 224.682 156.959 227.711 156.959V154.959C225.787 154.959 224.221 153.392 224.221 151.468H222.221ZM227.711 156.959H229.248V154.959H227.711V156.959ZM229.248 156.959C229.578 156.959 229.891 157.09 230.122 157.321L231.536 155.906C230.932 155.302 230.111 154.959 229.248 154.959V156.959ZM230.122 157.32L231.211 158.411L232.626 156.997L231.537 155.907L230.122 157.32ZM231.217 158.417C232.293 159.474 233.697 160 235.096 160V158C234.197 158 233.304 157.663 232.619 156.991L231.217 158.417ZM235.096 160C236.496 160 237.903 159.473 238.981 158.394L237.566 156.981C236.883 157.664 235.994 158 235.096 158V160ZM238.981 158.395L240.055 157.321L238.641 155.906L237.567 156.98L238.981 158.395ZM240.055 157.321C240.286 157.09 240.599 156.959 240.929 156.959V154.959C240.066 154.959 239.245 155.302 238.641 155.906L240.055 157.321ZM240.929 156.959H242.466V154.959H240.929V156.959ZM242.466 156.959C245.495 156.959 247.956 154.496 247.956 151.468H245.956C245.956 153.392 244.39 154.959 242.466 154.959V156.959ZM247.956 151.468V149.933H245.956V151.468H247.956ZM247.956 149.933C247.956 149.603 248.088 149.29 248.32 149.058L246.906 147.643C246.302 148.246 245.956 149.067 245.956 149.933H247.956ZM248.32 149.058L249.379 147.999L247.965 146.584L246.906 147.643L248.32 149.058ZM249.379 147.999C249.377 148 249.376 148.001 249.379 147.999C249.379 147.998 249.387 147.991 249.392 147.986C249.405 147.973 249.429 147.949 249.457 147.919L247.977 146.574C247.989 146.56 247.998 146.552 247.996 146.553C247.996 146.554 247.995 146.555 247.994 146.556C247.993 146.557 247.99 146.56 247.987 146.562C247.982 146.567 247.974 146.575 247.965 146.584L249.379 147.999ZM249.429 147.948C250.45 146.911 251.018 145.52 251 144.057L249 144.082C249.011 145.006 248.654 145.884 248.004 146.545L249.429 147.948ZM251 144.07C251 142.616 250.435 141.223 249.388 140.194L247.986 141.621C248.64 142.263 249 143.137 249 144.07H251Z" fill="url(#paint1_linear_306_129)" mask="url(#path-7-outside-1_306_129)"/>
</g>
<g filter="url(#filter2_bd_306_129)">
<mask id="path-9-inside-2_306_129" fill="white">
<path fill-rule="evenodd" clip-rule="evenodd" d="M232.172 148.842C231.933 149.096 231.605 149.23 231.247 149.23C230.904 149.23 230.576 149.096 230.337 148.842C229.83 148.335 229.83 147.5 230.337 146.993L238.005 139.326C238.512 138.821 239.333 138.821 239.84 139.326C240.347 139.833 240.347 140.67 239.84 141.177L232.172 148.842ZM238.93 149.23C238.199 149.23 237.617 148.649 237.617 147.918C237.617 147.203 238.199 146.62 238.93 146.62C239.646 146.62 240.228 147.203 240.228 147.918C240.228 148.649 239.646 149.23 238.93 149.23ZM232.56 140.251C232.56 139.535 231.978 138.954 231.262 138.954C230.546 138.954 229.949 139.535 229.949 140.251C229.949 140.984 230.546 141.564 231.262 141.564C231.978 141.564 232.56 140.984 232.56 140.251Z"/>
</mask>
<path fill-rule="evenodd" clip-rule="evenodd" d="M232.172 148.842C231.933 149.096 231.605 149.23 231.247 149.23C230.904 149.23 230.576 149.096 230.337 148.842C229.83 148.335 229.83 147.5 230.337 146.993L238.005 139.326C238.512 138.821 239.333 138.821 239.84 139.326C240.347 139.833 240.347 140.67 239.84 141.177L232.172 148.842ZM238.93 149.23C238.199 149.23 237.617 148.649 237.617 147.918C237.617 147.203 238.199 146.62 238.93 146.62C239.646 146.62 240.228 147.203 240.228 147.918C240.228 148.649 239.646 149.23 238.93 149.23ZM232.56 140.251C232.56 139.535 231.978 138.954 231.262 138.954C230.546 138.954 229.949 139.535 229.949 140.251C229.949 140.984 230.546 141.564 231.262 141.564C231.978 141.564 232.56 140.984 232.56 140.251Z" fill="url(#paint2_linear_306_129)"/>
<path d="M232.172 148.842L231.889 148.559L231.881 148.568L232.172 148.842ZM230.337 148.842L230.628 148.568L230.62 148.56L230.337 148.842ZM230.337 146.993L230.62 147.276H230.62L230.337 146.993ZM238.005 139.326L237.723 139.043L237.722 139.043L238.005 139.326ZM239.84 139.326L240.123 139.043L240.123 139.043L239.84 139.326ZM239.84 141.177L240.123 141.46L240.123 141.46L239.84 141.177ZM231.247 149.63C231.708 149.63 232.144 149.456 232.463 149.117L231.881 148.568C231.723 148.736 231.503 148.83 231.247 148.83V149.63ZM230.046 149.117C230.364 149.454 230.799 149.63 231.247 149.63V148.83C231.009 148.83 230.788 148.738 230.628 148.568L230.046 149.117ZM230.054 146.71C229.391 147.373 229.391 148.462 230.054 149.125L230.62 148.56C230.269 148.209 230.269 147.627 230.62 147.276L230.054 146.71ZM237.722 139.043L230.054 146.71L230.62 147.276L238.288 139.609L237.722 139.043ZM240.123 139.043C239.459 138.382 238.386 138.382 237.723 139.043L238.288 139.61C238.639 139.26 239.207 139.26 239.558 139.61L240.123 139.043ZM240.123 141.46C240.786 140.797 240.786 139.707 240.123 139.043L239.557 139.609C239.908 139.96 239.908 140.544 239.557 140.895L240.123 141.46ZM232.455 149.125L240.123 141.46L239.557 140.894L231.889 148.56L232.455 149.125ZM237.217 147.918C237.217 148.87 237.978 149.63 238.93 149.63V148.83C238.42 148.83 238.017 148.428 238.017 147.918H237.217ZM238.93 146.22C237.981 146.22 237.217 146.98 237.217 147.918H238.017C238.017 147.427 238.417 147.02 238.93 147.02V146.22ZM240.628 147.918C240.628 146.983 239.867 146.22 238.93 146.22V147.02C239.425 147.02 239.828 147.424 239.828 147.918H240.628ZM238.93 149.63C239.87 149.63 240.628 148.867 240.628 147.918H239.828C239.828 148.431 239.422 148.83 238.93 148.83V149.63ZM231.262 139.354C231.757 139.354 232.16 139.756 232.16 140.251H232.96C232.96 139.314 232.199 138.554 231.262 138.554V139.354ZM230.349 140.251C230.349 139.762 230.761 139.354 231.262 139.354V138.554C230.331 138.554 229.549 139.308 229.549 140.251H230.349ZM231.262 141.164C230.763 141.164 230.349 140.759 230.349 140.251H229.549C229.549 141.208 230.328 141.964 231.262 141.964V141.164ZM232.16 140.251C232.16 140.765 231.755 141.164 231.262 141.164V141.964C232.202 141.964 232.96 141.202 232.96 140.251H232.16Z" fill="url(#paint3_linear_306_129)" mask="url(#path-9-inside-2_306_129)"/>
</g>
<path d="M48.8676 185.264C44.2196 184.296 40.997 179.98 41.3956 175.257C41.7943 170.533 45.6859 166.923 50.4187 166.886L57.0831 166.833C63.0104 166.787 67.7437 171.905 67.2444 177.821C66.7451 183.736 61.2336 187.838 55.4125 186.626L48.8676 185.264Z" fill="url(#paint4_linear_306_129)"/>
<g opacity="0.5" filter="url(#filter3_f_306_129)">
<path d="M50.5062 182.088C47.7588 181.516 45.8539 178.965 46.0896 176.173C46.3252 173.381 48.6256 171.247 51.423 171.225L55.3622 171.194C58.8658 171.166 61.6636 174.191 61.3685 177.688C61.0734 181.185 57.8156 183.609 54.3748 182.893L50.5062 182.088Z" fill="#0062FF"/>
</g>
<g filter="url(#filter4_b_306_129)">
<mask id="path-13-outside-3_306_129" maskUnits="userSpaceOnUse" x="33.2683" y="162.889" width="55.7787" height="54.6508" fill="black">
<rect fill="white" x="33.2683" y="162.889" width="55.7787" height="54.6508"/>
<path d="M78.6198 183.501C77.1918 184.312 75.3662 183.802 74.5503 182.365C73.7334 180.926 74.2314 179.097 75.6594 178.286C76.0055 178.09 76.2592 177.763 76.3635 177.379C76.4687 176.993 76.4163 176.581 76.2185 176.233L73.5316 171.504C71.2618 167.506 66.1821 166.089 62.2096 168.344L41.8392 179.908C37.8667 182.163 36.4797 187.251 38.7495 191.249L41.5194 196.133C41.7171 196.481 42.0444 196.737 42.4297 196.845C42.8123 196.952 43.2231 196.901 43.5692 196.705C45.0458 195.867 46.7582 196.29 47.5532 197.691C48.3691 199.128 47.8711 200.957 46.4431 201.767C45.7231 202.176 45.4726 203.096 45.884 203.821L48.5672 208.547C50.8369 212.546 55.9159 213.965 59.8902 211.709L80.2641 200.143C84.2383 197.887 85.6225 192.798 83.3527 188.8L80.6696 184.073C80.2582 183.349 79.3399 183.092 78.6198 183.501Z"/>
</mask>
<path d="M78.6198 183.501C77.1918 184.312 75.3662 183.802 74.5503 182.365C73.7334 180.926 74.2314 179.097 75.6594 178.286C76.0055 178.09 76.2592 177.763 76.3635 177.379C76.4687 176.993 76.4163 176.581 76.2185 176.233L73.5316 171.504C71.2618 167.506 66.1821 166.089 62.2096 168.344L41.8392 179.908C37.8667 182.163 36.4797 187.251 38.7495 191.249L41.5194 196.133C41.7171 196.481 42.0444 196.737 42.4297 196.845C42.8123 196.952 43.2231 196.901 43.5692 196.705C45.0458 195.867 46.7582 196.29 47.5532 197.691C48.3691 199.128 47.8711 200.957 46.4431 201.767C45.7231 202.176 45.4726 203.096 45.884 203.821L48.5672 208.547C50.8369 212.546 55.9159 213.965 59.8902 211.709L80.2641 200.143C84.2383 197.887 85.6225 192.798 83.3527 188.8L80.6696 184.073C80.2582 183.349 79.3399 183.092 78.6198 183.501Z" fill="#3EA0FE" fill-opacity="0.35"/>
<path d="M79.1135 184.371C79.5938 184.098 79.7621 183.488 79.4894 183.007C79.2168 182.527 78.6064 182.359 78.1261 182.631L79.1135 184.371ZM76.3635 177.379L75.3987 177.117L76.3635 177.379ZM76.2185 176.233L77.0881 175.739L77.088 175.739L76.2185 176.233ZM73.5316 171.504L72.662 171.997L72.6621 171.998L73.5316 171.504ZM38.7495 191.249L39.6193 190.756L39.6192 190.756L38.7495 191.249ZM41.5194 196.133L40.6496 196.626L40.6497 196.626L41.5194 196.133ZM42.4297 196.845L42.6987 195.882L42.6987 195.882L42.4297 196.845ZM78.1261 182.631C77.6458 182.904 77.4775 183.514 77.7502 183.995C78.0228 184.475 78.6332 184.643 79.1135 184.371L78.1261 182.631ZM78.1261 182.631C77.1837 183.166 75.9662 182.833 75.4199 181.871L73.6807 182.858C74.7662 184.771 77.2 185.457 79.1135 184.371L78.1261 182.631ZM75.4199 181.871C74.8725 180.907 75.2111 179.691 76.1531 179.156L75.1657 177.417C73.2518 178.503 72.5943 180.945 73.6807 182.858L75.4199 181.871ZM76.1531 179.156C76.7307 178.828 77.154 178.283 77.3284 177.642L75.3987 177.117C75.3643 177.243 75.2803 177.351 75.1657 177.417L76.1531 179.156ZM77.3284 177.642C77.5032 177 77.4158 176.316 77.0881 175.739L75.3489 176.726C75.4168 176.846 75.4341 176.987 75.3987 177.117L77.3284 177.642ZM77.088 175.739L74.4011 171.01L72.6621 171.998L75.349 176.727L77.088 175.739ZM74.4012 171.01C71.8617 166.537 66.1737 164.943 61.7159 167.474L62.7033 169.213C66.1905 167.234 70.662 168.475 72.662 171.997L74.4012 171.01ZM61.7159 167.474L41.3455 179.038L42.3328 180.778L62.7033 169.213L61.7159 167.474ZM41.3455 179.038C36.8877 181.569 35.3403 187.27 37.8799 191.743L39.6192 190.756C37.6192 187.233 38.8456 182.757 42.3328 180.778L41.3455 179.038ZM37.8797 191.743L40.6496 196.626L42.3892 195.639L39.6193 190.756L37.8797 191.743ZM40.6497 196.626C40.9774 197.203 41.52 197.629 42.1608 197.808L42.6987 195.882C42.5687 195.845 42.4569 195.758 42.389 195.639L40.6497 196.626ZM42.1608 197.808C42.8001 197.987 43.4852 197.902 44.0629 197.575L43.0755 195.835C42.9609 195.9 42.8246 195.917 42.6987 195.882L42.1608 197.808ZM44.0629 197.575C45.1033 196.984 46.1856 197.307 46.6836 198.184L48.4228 197.197C47.3308 195.273 44.9884 194.749 43.0755 195.835L44.0629 197.575ZM46.6836 198.184C47.2298 199.147 46.8918 200.363 45.9495 200.898L46.9368 202.637C48.8503 201.551 49.5084 199.109 48.4228 197.197L46.6836 198.184ZM45.9495 200.898C44.7438 201.582 44.3333 203.115 45.0144 204.315L46.7536 203.327C46.6119 203.077 46.7023 202.77 46.9368 202.637L45.9495 200.898ZM45.0144 204.315L47.6975 209.041L49.4368 208.054L46.7536 203.327L45.0144 204.315ZM47.6975 209.041C50.2369 213.514 55.9239 215.111 60.3839 212.579L59.3965 210.839C55.9079 212.82 51.437 211.577 49.4368 208.054L47.6975 209.041ZM60.3839 212.579L80.7578 201.013L79.7704 199.273L59.3965 210.839L60.3839 212.579ZM80.7578 201.013C85.2177 198.481 86.7617 192.779 84.2224 188.306L82.4831 189.294C84.4833 192.817 83.2589 197.293 79.7704 199.273L80.7578 201.013ZM84.2224 188.306L81.5392 183.58L79.7999 184.567L82.4831 189.294L84.2224 188.306ZM81.5392 183.58C80.8581 182.38 79.3317 181.947 78.1261 182.631L79.1135 184.371C79.348 184.238 79.6582 184.317 79.7999 184.567L81.5392 183.58Z" fill="url(#paint5_linear_306_129)" mask="url(#path-13-outside-3_306_129)"/>
</g>
<g filter="url(#filter5_bd_306_129)">
<path d="M66.6047 185.912L65.7055 189.104L67.8185 191.696C68.1838 192.145 68.2651 192.746 68.0298 193.267C67.8 193.79 67.301 194.123 66.7283 194.135L63.4304 194.22L61.6628 197.013C61.5321 197.22 61.357 197.39 61.1535 197.505C60.8874 197.656 60.5766 197.72 60.2562 197.683C59.6887 197.615 59.2143 197.237 59.016 196.693L57.8718 193.551L54.6698 192.687C54.1164 192.539 53.701 192.095 53.5823 191.529C53.4663 190.964 53.6738 190.398 54.1224 190.05L56.7128 188.026L56.4994 184.697C56.4655 184.123 56.7488 183.593 57.2393 183.314L57.2428 183.312C57.736 183.035 58.3363 183.063 58.8084 183.388L61.5567 185.276L64.6286 184.088C65.1513 183.882 65.7439 183.995 66.1677 184.385C66.5943 184.776 66.7627 185.36 66.6047 185.912Z" fill="url(#paint6_linear_306_129)"/>
<path d="M66.5086 185.884L66.5085 185.885L65.6092 189.077L65.5951 189.127L65.628 189.167L67.7409 191.759C68.0828 192.179 68.1581 192.74 67.9386 193.226L67.9382 193.227C67.7242 193.714 67.2602 194.023 66.7262 194.035L66.7257 194.035L63.4278 194.12L63.3745 194.121L63.3459 194.166L61.5783 196.959L61.5782 196.959C61.4558 197.154 61.2925 197.311 61.1041 197.418C60.8568 197.559 60.5675 197.619 60.2681 197.583C59.7385 197.52 59.2956 197.168 59.11 196.659C59.1099 196.659 59.1099 196.659 59.1099 196.659L57.9657 193.517L57.9479 193.468L57.8978 193.455L54.6958 192.591L54.6957 192.591C54.1794 192.452 53.7914 192.038 53.6802 191.509C53.5719 190.981 53.7657 190.453 54.1837 190.129L54.184 190.129L56.7743 188.105L56.8159 188.072L56.8126 188.019L56.5992 184.691C56.5992 184.691 56.5992 184.691 56.5992 184.69C56.5676 184.153 56.8323 183.66 57.2887 183.401L57.292 183.399C57.7515 183.141 58.3106 183.167 58.7517 183.471L58.7518 183.471L61.5 185.358L61.5435 185.388L61.5927 185.369L64.6647 184.181L64.6653 184.181C65.1515 183.99 65.7038 184.094 66.1 184.458L66.1002 184.458C66.4993 184.824 66.6559 185.369 66.5086 185.884Z" stroke="url(#paint7_linear_306_129)" stroke-opacity="0.5" stroke-width="0.2"/>
</g>
<path d="M92.627 212.857C92.5097 212.732 92.4547 212.608 92.462 212.483C92.4767 212.358 92.5317 212.234 92.627 212.109L95.3 208.545L92.913 205.311C92.8177 205.186 92.7663 205.062 92.759 204.937C92.7517 204.812 92.7993 204.691 92.902 204.574C93.0047 204.457 93.1403 204.398 93.309 204.398C93.4777 204.398 93.6097 204.464 93.705 204.596L96.62 208.622L93.463 212.824C93.3677 212.941 93.2283 213 93.045 213C92.869 213.007 92.7297 212.96 92.627 212.857ZM97.918 213C97.7567 213 97.621 212.945 97.511 212.835C97.401 212.725 97.346 212.589 97.346 212.428V209.15H95.542V208.138H97.346V204.981C97.346 204.812 97.401 204.677 97.511 204.574C97.621 204.464 97.7567 204.409 97.918 204.409C98.0867 204.409 98.2223 204.464 98.325 204.574C98.435 204.677 98.49 204.812 98.49 204.981V208.138H100.294V209.15H98.49V212.428C98.49 212.589 98.435 212.725 98.325 212.835C98.2223 212.945 98.0867 213 97.918 213ZM103.231 212.857C103.128 212.96 102.985 213.007 102.802 213C102.619 213 102.483 212.941 102.395 212.824L99.216 208.622L102.153 204.596C102.248 204.464 102.38 204.398 102.549 204.398C102.718 204.398 102.853 204.457 102.956 204.574C103.059 204.691 103.103 204.812 103.088 204.937C103.081 205.062 103.033 205.186 102.945 205.311L100.547 208.545L103.231 212.109C103.326 212.234 103.381 212.358 103.396 212.483C103.411 212.608 103.356 212.732 103.231 212.857ZM107.021 213.044C106.412 213.044 105.87 212.916 105.393 212.659C104.924 212.395 104.553 212.036 104.282 211.581C104.018 211.119 103.886 210.591 103.886 209.997C103.886 209.396 104.011 208.868 104.26 208.413C104.517 207.951 104.869 207.592 105.316 207.335C105.763 207.071 106.277 206.939 106.856 206.939C107.428 206.939 107.919 207.067 108.33 207.324C108.741 207.573 109.052 207.922 109.265 208.369C109.485 208.809 109.595 209.319 109.595 209.898C109.595 210.037 109.547 210.155 109.452 210.25C109.357 210.338 109.236 210.382 109.089 210.382H104.656V209.502H109.056L108.605 209.81C108.598 209.443 108.524 209.117 108.385 208.831C108.246 208.538 108.048 208.307 107.791 208.138C107.534 207.969 107.223 207.885 106.856 207.885C106.438 207.885 106.079 207.977 105.778 208.16C105.485 208.343 105.261 208.596 105.107 208.919C104.953 209.234 104.876 209.594 104.876 209.997C104.876 210.4 104.968 210.76 105.151 211.075C105.334 211.39 105.587 211.64 105.91 211.823C106.233 212.006 106.603 212.098 107.021 212.098C107.248 212.098 107.479 212.058 107.714 211.977C107.956 211.889 108.15 211.79 108.297 211.68C108.407 211.599 108.524 211.559 108.649 211.559C108.781 211.552 108.895 211.588 108.99 211.669C109.115 211.779 109.181 211.9 109.188 212.032C109.195 212.164 109.137 212.278 109.012 212.373C108.763 212.571 108.451 212.732 108.077 212.857C107.71 212.982 107.358 213.044 107.021 213.044ZM118.924 213.011C118.763 213.011 118.627 212.96 118.517 212.857C118.414 212.747 118.363 212.611 118.363 212.45V209.304C118.363 208.842 118.249 208.501 118.022 208.281C117.795 208.054 117.498 207.94 117.131 207.94C116.75 207.94 116.434 208.072 116.185 208.336C115.943 208.6 115.822 208.937 115.822 209.348H114.909C114.909 208.871 115.012 208.453 115.217 208.094C115.422 207.727 115.708 207.441 116.075 207.236C116.449 207.031 116.874 206.928 117.351 206.928C117.769 206.928 118.139 207.02 118.462 207.203C118.785 207.386 119.034 207.658 119.21 208.017C119.393 208.369 119.485 208.798 119.485 209.304V212.45C119.485 212.611 119.434 212.747 119.331 212.857C119.228 212.96 119.093 213.011 118.924 213.011ZM111.587 213.011C111.426 213.011 111.29 212.96 111.18 212.857C111.077 212.747 111.026 212.611 111.026 212.45V207.555C111.026 207.386 111.077 207.251 111.18 207.148C111.29 207.045 111.426 206.994 111.587 206.994C111.756 206.994 111.891 207.045 111.994 207.148C112.097 207.251 112.148 207.386 112.148 207.555V212.45C112.148 212.611 112.097 212.747 111.994 212.857C111.891 212.96 111.756 213.011 111.587 213.011ZM115.261 213.011C115.1 213.011 114.964 212.96 114.854 212.857C114.751 212.747 114.7 212.611 114.7 212.45V209.304C114.7 208.842 114.586 208.501 114.359 208.281C114.132 208.054 113.835 207.94 113.468 207.94C113.087 207.94 112.771 208.072 112.522 208.336C112.273 208.6 112.148 208.937 112.148 209.348H111.455C111.455 208.871 111.55 208.453 111.741 208.094C111.932 207.727 112.196 207.441 112.533 207.236C112.87 207.031 113.255 206.928 113.688 206.928C114.106 206.928 114.476 207.02 114.799 207.203C115.122 207.386 115.371 207.658 115.547 208.017C115.73 208.369 115.822 208.798 115.822 209.304V212.45C115.822 212.611 115.771 212.747 115.668 212.857C115.565 212.96 115.43 213.011 115.261 213.011ZM123.879 213.055C123.373 213.055 122.919 212.949 122.515 212.736C122.119 212.516 121.804 212.197 121.569 211.779C121.342 211.361 121.228 210.848 121.228 210.239V207.533C121.228 207.372 121.28 207.24 121.382 207.137C121.492 207.027 121.628 206.972 121.789 206.972C121.951 206.972 122.083 207.027 122.185 207.137C122.295 207.24 122.35 207.372 122.35 207.533V210.239C122.35 210.65 122.427 210.991 122.581 211.262C122.735 211.526 122.944 211.724 123.208 211.856C123.472 211.981 123.769 212.043 124.099 212.043C124.415 212.043 124.693 211.981 124.935 211.856C125.185 211.731 125.383 211.563 125.529 211.35C125.676 211.137 125.749 210.899 125.749 210.635H126.442C126.442 211.09 126.329 211.5 126.101 211.867C125.881 212.234 125.577 212.523 125.188 212.736C124.807 212.949 124.371 213.055 123.879 213.055ZM126.31 213C126.149 213 126.013 212.949 125.903 212.846C125.801 212.736 125.749 212.6 125.749 212.439V207.533C125.749 207.364 125.801 207.229 125.903 207.126C126.013 207.023 126.149 206.972 126.31 206.972C126.479 206.972 126.615 207.023 126.717 207.126C126.82 207.229 126.871 207.364 126.871 207.533V212.439C126.871 212.6 126.82 212.736 126.717 212.846C126.615 212.949 126.479 213 126.31 213ZM134.523 213.066C134.105 213.066 133.735 212.974 133.412 212.791C133.09 212.608 132.837 212.34 132.653 211.988C132.477 211.629 132.389 211.196 132.389 210.69V207.544C132.389 207.375 132.441 207.24 132.543 207.137C132.653 207.034 132.789 206.983 132.95 206.983C133.119 206.983 133.255 207.034 133.357 207.137C133.46 207.24 133.511 207.375 133.511 207.544V210.69C133.511 210.998 133.563 211.255 133.665 211.46C133.768 211.658 133.911 211.808 134.094 211.911C134.285 212.006 134.501 212.054 134.743 212.054C135.132 212.054 135.447 211.922 135.689 211.658C135.939 211.394 136.063 211.06 136.063 210.657H136.536C136.536 211.126 136.448 211.544 136.272 211.911C136.104 212.27 135.869 212.553 135.568 212.758C135.268 212.963 134.919 213.066 134.523 213.066ZM130.86 213.066C130.442 213.066 130.072 212.974 129.749 212.791C129.434 212.608 129.185 212.34 129.001 211.988C128.818 211.629 128.726 211.196 128.726 210.69V207.544C128.726 207.375 128.778 207.24 128.88 207.137C128.99 207.034 129.126 206.983 129.287 206.983C129.456 206.983 129.592 207.034 129.694 207.137C129.797 207.24 129.848 207.375 129.848 207.544V210.69C129.848 210.998 129.9 211.255 130.002 211.46C130.112 211.658 130.259 211.808 130.442 211.911C130.626 212.006 130.838 212.054 131.08 212.054C131.469 212.054 131.784 211.922 132.026 211.658C132.268 211.394 132.389 211.06 132.389 210.657H132.862C132.862 211.126 132.778 211.544 132.609 211.911C132.441 212.27 132.206 212.553 131.905 212.758C131.605 212.963 131.256 213.066 130.86 213.066ZM136.624 213C136.463 213 136.327 212.949 136.217 212.846C136.115 212.736 136.063 212.6 136.063 212.439V207.544C136.063 207.375 136.115 207.24 136.217 207.137C136.327 207.034 136.463 206.983 136.624 206.983C136.793 206.983 136.929 207.034 137.031 207.137C137.134 207.24 137.185 207.375 137.185 207.544V212.439C137.185 212.6 137.134 212.736 137.031 212.846C136.929 212.949 136.793 213 136.624 213ZM141.701 213.055C141.195 213.055 140.74 212.949 140.337 212.736C139.941 212.516 139.625 212.197 139.391 211.779C139.163 211.361 139.05 210.848 139.05 210.239V207.533C139.05 207.372 139.101 207.24 139.204 207.137C139.314 207.027 139.449 206.972 139.611 206.972C139.772 206.972 139.904 207.027 140.007 207.137C140.117 207.24 140.172 207.372 140.172 207.533V210.239C140.172 210.65 140.249 210.991 140.403 211.262C140.557 211.526 140.766 211.724 141.03 211.856C141.294 211.981 141.591 212.043 141.921 212.043C142.236 212.043 142.515 211.981 142.757 211.856C143.006 211.731 143.204 211.563 143.351 211.35C143.497 211.137 143.571 210.899 143.571 210.635H144.264C144.264 211.09 144.15 211.5 143.923 211.867C143.703 212.234 143.398 212.523 143.01 212.736C142.628 212.949 142.192 213.055 141.701 213.055ZM144.132 213C143.97 213 143.835 212.949 143.725 212.846C143.622 212.736 143.571 212.6 143.571 212.439V207.533C143.571 207.364 143.622 207.229 143.725 207.126C143.835 207.023 143.97 206.972 144.132 206.972C144.3 206.972 144.436 207.023 144.539 207.126C144.641 207.229 144.693 207.364 144.693 207.533V212.439C144.693 212.6 144.641 212.736 144.539 212.846C144.436 212.949 144.3 213 144.132 213ZM151.751 213.011C151.589 213.011 151.454 212.96 151.344 212.857C151.241 212.747 151.19 212.611 151.19 212.45V209.744C151.19 209.326 151.113 208.985 150.959 208.721C150.805 208.457 150.596 208.263 150.332 208.138C150.075 208.006 149.778 207.94 149.441 207.94C149.133 207.94 148.854 208.002 148.605 208.127C148.355 208.252 148.157 208.42 148.011 208.633C147.864 208.838 147.791 209.077 147.791 209.348H147.098C147.098 208.886 147.208 208.475 147.428 208.116C147.655 207.749 147.963 207.46 148.352 207.247C148.74 207.034 149.177 206.928 149.661 206.928C150.167 206.928 150.618 207.038 151.014 207.258C151.417 207.471 151.732 207.786 151.96 208.204C152.194 208.622 152.312 209.135 152.312 209.744V212.45C152.312 212.611 152.257 212.747 152.147 212.857C152.044 212.96 151.912 213.011 151.751 213.011ZM147.23 213.011C147.068 213.011 146.933 212.96 146.823 212.857C146.72 212.747 146.669 212.611 146.669 212.45V207.544C146.669 207.375 146.72 207.24 146.823 207.137C146.933 207.034 147.068 206.983 147.23 206.983C147.398 206.983 147.534 207.034 147.637 207.137C147.739 207.24 147.791 207.375 147.791 207.544V212.45C147.791 212.611 147.739 212.747 147.637 212.857C147.534 212.96 147.398 213.011 147.23 213.011ZM162.273 212.868C162.178 212.956 162.042 213 161.866 213C161.698 212.993 161.566 212.941 161.47 212.846L158.797 209.975L161.316 207.159C161.412 207.056 161.544 206.998 161.712 206.983C161.888 206.968 162.024 207.005 162.119 207.093C162.229 207.196 162.292 207.313 162.306 207.445C162.321 207.57 162.281 207.683 162.185 207.786L160.194 209.92L162.306 212.186C162.402 212.281 162.449 212.395 162.449 212.527C162.449 212.652 162.391 212.765 162.273 212.868ZM157.917 213.011C157.756 213.011 157.628 212.96 157.532 212.857C157.437 212.747 157.389 212.611 157.389 212.45V207.544C157.389 207.375 157.437 207.24 157.532 207.137C157.628 207.034 157.756 206.983 157.917 206.983C158.086 206.983 158.222 207.034 158.324 207.137C158.434 207.24 158.489 207.375 158.489 207.544V209.381H159.897V210.415H158.489V212.45C158.489 212.611 158.434 212.747 158.324 212.857C158.222 212.96 158.086 213.011 157.917 213.011ZM165.784 213.044C165.249 213.044 164.768 212.912 164.343 212.648C163.918 212.377 163.58 212.014 163.331 211.559C163.089 211.097 162.968 210.576 162.968 209.997C162.968 209.418 163.1 208.897 163.364 208.435C163.635 207.973 163.998 207.61 164.453 207.346C164.915 207.075 165.432 206.939 166.004 206.939C166.576 206.939 167.089 207.075 167.544 207.346C167.999 207.61 168.358 207.973 168.622 208.435C168.893 208.897 169.029 209.418 169.029 209.997H168.6C168.6 210.576 168.475 211.097 168.226 211.559C167.984 212.014 167.65 212.377 167.225 212.648C166.8 212.912 166.319 213.044 165.784 213.044ZM166.004 212.054C166.378 212.054 166.712 211.966 167.005 211.79C167.298 211.607 167.529 211.361 167.698 211.053C167.867 210.738 167.951 210.386 167.951 209.997C167.951 209.601 167.867 209.249 167.698 208.941C167.529 208.626 167.298 208.38 167.005 208.204C166.712 208.021 166.378 207.929 166.004 207.929C165.637 207.929 165.304 208.021 165.003 208.204C164.71 208.38 164.475 208.626 164.299 208.941C164.13 209.249 164.046 209.601 164.046 209.997C164.046 210.386 164.13 210.738 164.299 211.053C164.475 211.361 164.71 211.607 165.003 211.79C165.304 211.966 165.637 212.054 166.004 212.054ZM168.468 213.011C168.307 213.011 168.171 212.96 168.061 212.857C167.958 212.747 167.907 212.611 167.907 212.45V210.767L168.116 209.601L169.029 209.997V212.45C169.029 212.611 168.974 212.747 168.864 212.857C168.761 212.96 168.629 213.011 168.468 213.011ZM172.954 206.994C173.064 206.994 173.163 207.023 173.251 207.082C173.339 207.141 173.409 207.232 173.46 207.357L175.726 212.274C175.792 212.421 175.799 212.553 175.748 212.67C175.697 212.78 175.609 212.864 175.484 212.923C175.323 212.996 175.183 213.015 175.066 212.978C174.949 212.941 174.85 212.85 174.769 212.703L172.701 208.006H173.262L171.128 212.703C171.062 212.842 170.963 212.934 170.831 212.978C170.706 213.015 170.567 212.996 170.413 212.923C170.274 212.857 170.175 212.769 170.116 212.659C170.065 212.549 170.076 212.421 170.149 212.274L172.426 207.357C172.536 207.115 172.712 206.994 172.954 206.994ZM179.674 213.11C179.183 213.11 178.746 213.007 178.365 212.802C177.984 212.589 177.687 212.3 177.474 211.933C177.261 211.566 177.155 211.148 177.155 210.679V207.533C177.17 207.372 177.228 207.24 177.331 207.137C177.434 207.034 177.562 206.983 177.716 206.983C177.885 206.983 178.02 207.034 178.123 207.137C178.226 207.24 178.277 207.375 178.277 207.544V208.776H179.784C180.246 208.776 180.653 208.857 181.005 209.018C181.364 209.179 181.643 209.414 181.841 209.722C182.046 210.03 182.149 210.408 182.149 210.855C182.149 211.332 182.043 211.739 181.83 212.076C181.625 212.413 181.335 212.67 180.961 212.846C180.587 213.022 180.158 213.11 179.674 213.11ZM179.674 212.065C180.085 212.065 180.418 211.966 180.675 211.768C180.939 211.563 181.071 211.258 181.071 210.855C181.071 210.466 180.95 210.18 180.708 209.997C180.466 209.814 180.158 209.722 179.784 209.722H178.277V210.657C178.277 211.068 178.405 211.405 178.662 211.669C178.926 211.933 179.263 212.065 179.674 212.065ZM183.667 213C183.506 213 183.37 212.949 183.26 212.846C183.157 212.736 183.106 212.6 183.106 212.439V207.544C183.106 207.375 183.157 207.24 183.26 207.137C183.37 207.034 183.506 206.983 183.667 206.983C183.836 206.983 183.971 207.034 184.074 207.137C184.177 207.24 184.228 207.375 184.228 207.544V212.439C184.228 212.6 184.177 212.736 184.074 212.846C183.971 212.949 183.836 213 183.667 213ZM192.36 214.958C192.206 214.958 192.077 214.903 191.975 214.793C191.872 214.683 191.821 214.547 191.821 214.386V213H191.249V212.054H192.283C192.451 212.054 192.587 212.109 192.69 212.219C192.8 212.322 192.855 212.457 192.855 212.626V214.386C192.855 214.547 192.807 214.683 192.712 214.793C192.624 214.903 192.506 214.958 192.36 214.958ZM191.271 213C191.109 213 190.974 212.949 190.864 212.846C190.761 212.736 190.71 212.6 190.71 212.439V207.544C190.71 207.375 190.761 207.24 190.864 207.137C190.974 207.034 191.109 206.983 191.271 206.983C191.439 206.983 191.571 207.034 191.667 207.137C191.762 207.24 191.81 207.375 191.81 207.544V212.439C191.81 212.6 191.762 212.736 191.667 212.846C191.571 212.949 191.439 213 191.271 213ZM186.75 213C186.588 213 186.456 212.949 186.354 212.846C186.258 212.736 186.211 212.6 186.211 212.439V207.544C186.211 207.375 186.258 207.24 186.354 207.137C186.456 207.034 186.588 206.983 186.75 206.983C186.918 206.983 187.054 207.034 187.157 207.137C187.259 207.24 187.311 207.375 187.311 207.544V212.439C187.311 212.6 187.259 212.736 187.157 212.846C187.054 212.949 186.918 213 186.75 213ZM187.168 210.371V209.381H191.029V210.371H187.168ZM196.314 213.11C195.822 213.11 195.386 213.007 195.005 212.802C194.623 212.589 194.326 212.3 194.114 211.933C193.901 211.566 193.795 211.148 193.795 210.679V207.533C193.809 207.372 193.868 207.24 193.971 207.137C194.073 207.034 194.202 206.983 194.356 206.983C194.524 206.983 194.66 207.034 194.763 207.137C194.865 207.24 194.917 207.375 194.917 207.544V208.776H196.424C196.886 208.776 197.293 208.857 197.645 209.018C198.004 209.179 198.283 209.414 198.481 209.722C198.686 210.03 198.789 210.408 198.789 210.855C198.789 211.332 198.682 211.739 198.47 212.076C198.264 212.413 197.975 212.67 197.601 212.846C197.227 213.022 196.798 213.11 196.314 213.11ZM196.314 212.065C196.724 212.065 197.058 211.966 197.315 211.768C197.579 211.563 197.711 211.258 197.711 210.855C197.711 210.466 197.59 210.18 197.348 209.997C197.106 209.814 196.798 209.722 196.424 209.722H194.917V210.657C194.917 211.068 195.045 211.405 195.302 211.669C195.566 211.933 195.903 212.065 196.314 212.065ZM200.307 213C200.145 213 200.01 212.949 199.9 212.846C199.797 212.736 199.746 212.6 199.746 212.439V207.544C199.746 207.375 199.797 207.24 199.9 207.137C200.01 207.034 200.145 206.983 200.307 206.983C200.475 206.983 200.611 207.034 200.714 207.137C200.816 207.24 200.868 207.375 200.868 207.544V212.439C200.868 212.6 200.816 212.736 200.714 212.846C200.611 212.949 200.475 213 200.307 213ZM204.907 213.088C204.555 213.088 204.229 213.051 203.928 212.978C203.635 212.905 203.367 212.806 203.125 212.681C202.891 212.549 202.685 212.406 202.509 212.252C202.392 212.142 202.333 212.014 202.333 211.867C202.333 211.713 202.396 211.588 202.52 211.493C202.63 211.405 202.762 211.368 202.916 211.383C203.078 211.39 203.213 211.445 203.323 211.548C203.499 211.702 203.719 211.834 203.983 211.944C204.247 212.047 204.552 212.098 204.896 212.098C205.3 212.098 205.619 212.014 205.853 211.845C206.095 211.669 206.216 211.445 206.216 211.174C206.216 210.932 206.128 210.741 205.952 210.602C205.784 210.455 205.571 210.378 205.314 210.371H204.687C204.526 210.371 204.39 210.327 204.28 210.239C204.17 210.151 204.115 210.045 204.115 209.92C204.115 209.795 204.17 209.693 204.28 209.612C204.39 209.531 204.526 209.491 204.687 209.491H205.303C205.545 209.476 205.725 209.396 205.842 209.249C205.967 209.102 206.029 208.919 206.029 208.699C206.029 208.457 205.927 208.266 205.721 208.127C205.516 207.988 205.219 207.918 204.83 207.918C204.515 207.918 204.229 207.962 203.972 208.05C203.716 208.138 203.503 208.266 203.334 208.435C203.217 208.552 203.089 208.618 202.949 208.633C202.817 208.64 202.689 208.596 202.564 208.501C202.469 208.428 202.425 208.321 202.432 208.182C202.447 208.043 202.509 207.914 202.619 207.797C202.854 207.54 203.169 207.331 203.565 207.17C203.961 207.009 204.376 206.928 204.808 206.928C205.256 206.928 205.652 207.005 205.996 207.159C206.341 207.313 206.612 207.518 206.81 207.775C207.008 208.032 207.107 208.314 207.107 208.622C207.107 208.879 207.038 209.106 206.898 209.304C206.766 209.495 206.587 209.645 206.359 209.755C206.139 209.858 205.894 209.909 205.622 209.909V209.821C205.938 209.821 206.22 209.883 206.469 210.008C206.726 210.133 206.928 210.301 207.074 210.514C207.221 210.719 207.294 210.958 207.294 211.229C207.294 211.581 207.188 211.896 206.975 212.175C206.77 212.454 206.488 212.677 206.128 212.846C205.769 213.007 205.362 213.088 204.907 213.088Z" fill="#DADADA"/>
<rect x="79" y="225" width="143" height="29" rx="10" fill="white"/>
<path d="M93.1719 235.875V233.625H102.578V235.875H99.3984V245H96.3516V235.875H93.1719ZM103.25 242.586C103.25 241.617 103.617 240.906 104.352 240.453C105.091 239.995 106.013 239.763 107.117 239.758H108.562V239.367C108.562 239.086 108.49 238.859 108.344 238.688C108.198 238.516 107.938 238.43 107.562 238.43C107.182 238.43 106.917 238.5 106.766 238.641C106.615 238.781 106.539 238.966 106.539 239.195V239.367H103.656V239.195C103.656 238.393 104.036 237.755 104.797 237.281C105.557 236.802 106.526 236.562 107.703 236.562C108.885 236.562 109.812 236.789 110.484 237.242C111.161 237.69 111.5 238.406 111.5 239.391V243.188C111.5 243.516 111.534 243.831 111.602 244.133C111.669 244.43 111.755 244.677 111.859 244.875V245H108.953C108.901 244.885 108.852 244.737 108.805 244.555C108.763 244.367 108.734 244.19 108.719 244.023C108.583 244.31 108.281 244.57 107.812 244.805C107.349 245.034 106.781 245.148 106.109 245.148C105.292 245.148 104.609 244.94 104.062 244.523C103.521 244.107 103.25 243.461 103.25 242.586ZM106.211 242.297C106.211 242.583 106.292 242.82 106.453 243.008C106.615 243.195 106.88 243.289 107.25 243.289C107.672 243.289 107.995 243.167 108.219 242.922C108.448 242.672 108.562 242.339 108.562 241.922V241.406H107.594C107.109 241.406 106.758 241.479 106.539 241.625C106.32 241.771 106.211 241.995 106.211 242.297ZM113.398 248.25V236.789H116.195L116.234 237.625H116.273C116.419 237.328 116.701 237.086 117.117 236.898C117.534 236.711 117.982 236.617 118.461 236.617C119.523 236.617 120.385 236.984 121.047 237.719C121.714 238.448 122.047 239.464 122.047 240.766V241.016C122.047 242.302 121.724 243.315 121.078 244.055C120.432 244.789 119.599 245.156 118.578 245.156C118.104 245.156 117.656 245.083 117.234 244.938C116.818 244.786 116.521 244.565 116.344 244.273V248.25H113.398ZM116.344 242.055C116.432 242.32 116.604 242.547 116.859 242.734C117.12 242.917 117.411 243.008 117.734 243.008C118.161 243.008 118.484 242.87 118.703 242.594C118.927 242.312 119.039 241.857 119.039 241.227V240.562C119.039 239.927 118.927 239.471 118.703 239.195C118.484 238.919 118.154 238.781 117.711 238.781C117.362 238.781 117.073 238.87 116.844 239.047C116.62 239.219 116.453 239.427 116.344 239.672V242.055ZM123.445 245V236.789H126.391V240.086C126.391 240.247 126.383 240.464 126.367 240.734C126.357 241 126.339 241.201 126.312 241.336L126.383 241.352C126.456 241.211 126.536 241.052 126.625 240.875C126.714 240.698 126.823 240.484 126.953 240.234L128.812 236.789H131.758V245H128.82V241.648C128.82 241.487 128.82 241.289 128.82 241.055C128.826 240.815 128.831 240.615 128.836 240.453H128.766C128.703 240.599 128.633 240.75 128.555 240.906C128.477 241.057 128.378 241.255 128.258 241.5L126.398 245H123.445ZM136.172 241.039C136.172 241.727 136.336 242.234 136.664 242.562C136.997 242.891 137.484 243.06 138.125 243.07V238.711C137.484 238.721 136.997 238.898 136.664 239.242C136.336 239.586 136.172 240.099 136.172 240.781V241.039ZM143.016 240.781C143.016 240.099 142.859 239.586 142.547 239.242C142.24 238.898 141.745 238.721 141.062 238.711V243.07C141.745 243.06 142.24 242.891 142.547 242.562C142.859 242.234 143.016 241.729 143.016 241.047V240.781ZM138.125 245.234C136.411 245.167 135.156 244.766 134.359 244.031C133.562 243.297 133.164 242.299 133.164 241.039V240.789C133.164 239.529 133.562 238.526 134.359 237.781C135.156 237.031 136.411 236.622 138.125 236.555V233.086H141.062V236.555C142.833 236.622 144.102 237.031 144.867 237.781C145.638 238.526 146.023 239.529 146.023 240.789V241.039C146.023 242.294 145.638 243.292 144.867 244.031C144.102 244.766 142.833 245.167 141.062 245.234V248.25H138.125V245.234ZM150.688 238.961V236.789H158.383V238.961H156.008V245H153.062V238.961H150.688ZM159.125 242.586C159.125 241.617 159.492 240.906 160.227 240.453C160.966 239.995 161.888 239.763 162.992 239.758H164.438V239.367C164.438 239.086 164.365 238.859 164.219 238.688C164.073 238.516 163.812 238.43 163.438 238.43C163.057 238.43 162.792 238.5 162.641 238.641C162.49 238.781 162.414 238.966 162.414 239.195V239.367H159.531V239.195C159.531 238.393 159.911 237.755 160.672 237.281C161.432 236.802 162.401 236.562 163.578 236.562C164.76 236.562 165.688 236.789 166.359 237.242C167.036 237.69 167.375 238.406 167.375 239.391V243.188C167.375 243.516 167.409 243.831 167.477 244.133C167.544 244.43 167.63 244.677 167.734 244.875V245H164.828C164.776 244.885 164.727 244.737 164.68 244.555C164.638 244.367 164.609 244.19 164.594 244.023C164.458 244.31 164.156 244.57 163.688 244.805C163.224 245.034 162.656 245.148 161.984 245.148C161.167 245.148 160.484 244.94 159.938 244.523C159.396 244.107 159.125 243.461 159.125 242.586ZM162.086 242.297C162.086 242.583 162.167 242.82 162.328 243.008C162.49 243.195 162.755 243.289 163.125 243.289C163.547 243.289 163.87 243.167 164.094 242.922C164.323 242.672 164.438 242.339 164.438 241.922V241.406H163.469C162.984 241.406 162.633 241.479 162.414 241.625C162.195 241.771 162.086 241.995 162.086 242.297ZM169.273 236.789H172.219V239.727H174.492V236.789H177.43V245H174.492V241.891H172.219V245H169.273V236.789ZM185.742 247.109V245H181.219V247.109H178.422V242.836H188.539V247.109H185.742ZM182.523 238.961L182.469 240.188C182.443 240.802 182.391 241.336 182.312 241.789C182.24 242.237 182.13 242.633 181.984 242.977H179.195C179.409 242.602 179.573 242.117 179.688 241.523C179.807 240.924 179.885 240.195 179.922 239.336L180.023 236.789H187.344V245H184.398V238.961H182.523ZM189.133 241.016V240.766C189.133 239.438 189.552 238.404 190.391 237.664C191.234 236.919 192.315 236.547 193.633 236.547C194.951 236.547 196.029 236.919 196.867 237.664C197.706 238.404 198.125 239.438 198.125 240.766V241.016C198.125 242.339 197.706 243.372 196.867 244.117C196.029 244.862 194.951 245.234 193.633 245.234C192.315 245.234 191.234 244.862 190.391 244.117C189.552 243.372 189.133 242.339 189.133 241.016ZM192.148 240.555V241.227C192.148 241.919 192.281 242.401 192.547 242.672C192.812 242.938 193.174 243.07 193.633 243.07C194.091 243.07 194.451 242.938 194.711 242.672C194.977 242.401 195.109 241.919 195.109 241.227V240.555C195.109 239.862 194.971 239.383 194.695 239.117C194.424 238.852 194.07 238.719 193.633 238.719C193.19 238.719 192.831 238.852 192.555 239.117C192.284 239.383 192.148 239.862 192.148 240.555ZM199.117 241.016V240.766C199.117 239.438 199.536 238.404 200.375 237.664C201.219 236.919 202.299 236.547 203.617 236.547C204.935 236.547 206.013 236.919 206.852 237.664C207.69 238.404 208.109 239.438 208.109 240.766V241.016C208.109 242.339 207.69 243.372 206.852 244.117C206.013 244.862 204.935 245.234 203.617 245.234C202.299 245.234 201.219 244.862 200.375 244.117C199.536 243.372 199.117 242.339 199.117 241.016ZM202.133 240.555V241.227C202.133 241.919 202.266 242.401 202.531 242.672C202.797 242.938 203.159 243.07 203.617 243.07C204.076 243.07 204.435 242.938 204.695 242.672C204.961 242.401 205.094 241.919 205.094 241.227V240.555C205.094 239.862 204.956 239.383 204.68 239.117C204.409 238.852 204.055 238.719 203.617 238.719C203.174 238.719 202.815 238.852 202.539 239.117C202.268 239.383 202.133 239.862 202.133 240.555Z" fill="#BA0F43"/>
<defs>
<filter id="filter0_f_306_129" x="197.039" y="106.039" width="65.7476" height="65.7461" filterUnits="userSpaceOnUse" color-interpolation-filters="sRGB">
<feFlood flood-opacity="0" result="BackgroundImageFix"/>
<feBlend mode="normal" in="SourceGraphic" in2="BackgroundImageFix" result="shape"/>
<feGaussianBlur stdDeviation="11.5" result="effect1_foregroundBlur_306_129"/>
</filter>
<filter id="filter1_b_306_129" x="195.174" y="104.176" width="79.8263" height="79.824" filterUnits="userSpaceOnUse" color-interpolation-filters="sRGB">
<feFlood flood-opacity="0" result="BackgroundImageFix"/>
<feGaussianBlur in="BackgroundImageFix" stdDeviation="12"/>
<feComposite in2="SourceAlpha" operator="in" result="effect1_backgroundBlur_306_129"/>
<feBlend mode="normal" in="SourceGraphic" in2="effect1_backgroundBlur_306_129" result="shape"/>
</filter>
<filter id="filter2_bd_306_129" x="214.949" y="123.947" width="40.2789" height="40.2831" filterUnits="userSpaceOnUse" color-interpolation-filters="sRGB">
<feFlood flood-opacity="0" result="BackgroundImageFix"/>
<feGaussianBlur in="BackgroundImageFix" stdDeviation="7.5"/>
<feComposite in2="SourceAlpha" operator="in" result="effect1_backgroundBlur_306_129"/>
<feColorMatrix in="SourceAlpha" type="matrix" values="0 0 0 0 0 0 0 0 0 0 0 0 0 0 0 0 0 0 127 0" result="hardAlpha"/>
<feOffset dx="5" dy="5"/>
<feGaussianBlur stdDeviation="5"/>
<feColorMatrix type="matrix" values="0 0 0 0 1 0 0 0 0 0.580392 0 0 0 0 0.247059 0 0 0 0.5 0"/>
<feBlend mode="normal" in2="effect1_backgroundBlur_306_129" result="effect2_dropShadow_306_129"/>
<feBlend mode="normal" in="SourceGraphic" in2="effect2_dropShadow_306_129" result="shape"/>
</filter>
<filter id="filter3_f_306_129" x="26.0698" y="151.194" width="55.3201" height="51.8253" filterUnits="userSpaceOnUse" color-interpolation-filters="sRGB">
<feFlood flood-opacity="0" result="BackgroundImageFix"/>
<feBlend mode="normal" in="SourceGraphic" in2="BackgroundImageFix" result="shape"/>
<feGaussianBlur stdDeviation="10" result="effect1_foregroundBlur_306_129"/>
</filter>
<filter id="filter4_b_306_129" x="12.6584" y="142.271" width="96.7859" height="95.5115" filterUnits="userSpaceOnUse" color-interpolation-filters="sRGB">
<feFlood flood-opacity="0" result="BackgroundImageFix"/>
<feGaussianBlur in="BackgroundImageFix" stdDeviation="12"/>
<feComposite in2="SourceAlpha" operator="in" result="effect1_backgroundBlur_306_129"/>
<feBlend mode="normal" in="SourceGraphic" in2="effect1_backgroundBlur_306_129" result="shape"/>
</filter>
<filter id="filter5_bd_306_129" x="38.5505" y="168.122" width="44.6121" height="44.5709" filterUnits="userSpaceOnUse" color-interpolation-filters="sRGB">
<feFlood flood-opacity="0" result="BackgroundImageFix"/>
<feGaussianBlur in="BackgroundImageFix" stdDeviation="7.5"/>
<feComposite in2="SourceAlpha" operator="in" result="effect1_backgroundBlur_306_129"/>
<feColorMatrix in="SourceAlpha" type="matrix" values="0 0 0 0 0 0 0 0 0 0 0 0 0 0 0 0 0 0 127 0" result="hardAlpha"/>
<feOffset dx="5" dy="5"/>
<feGaussianBlur stdDeviation="5"/>
<feColorMatrix type="matrix" values="0 0 0 0 0.15375 0 0 0 0 0.522433 0 0 0 0 0.9 0 0 0 0.5 0"/>
<feBlend mode="normal" in2="effect1_backgroundBlur_306_129" result="effect2_dropShadow_306_129"/>
<feBlend mode="normal" in="SourceGraphic" in2="effect2_dropShadow_306_129" result="shape"/>
</filter>
<linearGradient id="paint0_linear_306_129" x1="229.913" y1="124" x2="229.913" y2="153.824" gradientUnits="userSpaceOnUse">
<stop stop-color="#FFB37F"/>
<stop offset="1" stop-color="#FF7B0D"/>
</linearGradient>
<linearGradient id="paint1_linear_306_129" x1="220.087" y1="128.973" x2="243.926" y2="156.23" gradientUnits="userSpaceOnUse">
<stop stop-color="white" stop-opacity="0.4"/>
<stop offset="1" stop-color="white" stop-opacity="0"/>
</linearGradient>
<linearGradient id="paint2_linear_306_129" x1="239.499" y1="140.804" x2="228.05" y2="141.177" gradientUnits="userSpaceOnUse">
<stop stop-color="white"/>
<stop offset="1" stop-color="white" stop-opacity="0.2"/>
</linearGradient>
<linearGradient id="paint3_linear_306_129" x1="231.585" y1="140.145" x2="238.145" y2="148.267" gradientUnits="userSpaceOnUse">
<stop stop-color="white" stop-opacity="0.25"/>
<stop offset="1" stop-color="white" stop-opacity="0"/>
</linearGradient>
<linearGradient id="paint4_linear_306_129" x1="42.1966" y1="165.767" x2="54.8592" y2="192.769" gradientUnits="userSpaceOnUse">
<stop stop-color="#39AFFD"/>
<stop offset="1" stop-color="#477FFF"/>
</linearGradient>
<linearGradient id="paint5_linear_306_129" x1="42.2721" y1="184.561" x2="84.4727" y2="198.69" gradientUnits="userSpaceOnUse">
<stop stop-color="white" stop-opacity="0.25"/>
<stop offset="1" stop-color="white" stop-opacity="0"/>
</linearGradient>
<linearGradient id="paint6_linear_306_129" x1="63.9686" y1="182.458" x2="50.074" y2="190.971" gradientUnits="userSpaceOnUse">
<stop stop-color="white"/>
<stop offset="1" stop-color="white" stop-opacity="0.2"/>
</linearGradient>
<linearGradient id="paint7_linear_306_129" x1="54.6156" y1="190.309" x2="65.4475" y2="184.241" gradientUnits="userSpaceOnUse">
<stop stop-color="white"/>
<stop offset="1" stop-color="white" stop-opacity="0"/>
</linearGradient>
</defs>
</svg>
