<svg width="46" height="47" viewBox="0 0 46 47" fill="none" xmlns="http://www.w3.org/2000/svg">
<path d="M27.7983 30.3942C27.235 30.7173 26.5657 30.8033 25.938 30.6334L17.6471 28.4119C16.3379 28.0611 15.5601 26.7185 15.9098 25.4132L17.516 19.419C17.6658 18.9082 18.0384 18.4922 18.5304 18.2864L23.9643 15.8902C24.9152 15.43 26.0611 15.7149 26.6858 16.567L30.285 21.436C30.5872 21.8649 30.6835 22.405 30.548 22.9109L28.9402 28.9113C28.7724 29.5375 28.3615 30.0711 27.7983 30.3942Z" fill="url(#paint0_linear_691_335)"/>
<g opacity="0.5" filter="url(#filter0_f_691_335)">
<path d="M26.1808 27.3771C25.8365 27.5746 25.4275 27.6272 25.0438 27.5233L19.9765 26.1655C19.1763 25.9511 18.7009 25.1306 18.9147 24.3328L19.8964 20.6691C19.9879 20.3569 20.2156 20.1027 20.5163 19.9769L23.8375 18.5124C24.4187 18.2311 25.119 18.4053 25.5009 18.926L27.7006 21.9019C27.8854 22.1641 27.9442 22.4942 27.8614 22.8034L26.8787 26.4708C26.7762 26.8535 26.525 27.1796 26.1808 27.3771Z" fill="#0062FF"/>
</g>
<g filter="url(#filter1_b_691_335)">
<path d="M26.1562 31.0741C25.6459 31.5794 24.954 31.8623 24.2332 31.8604H14.7201C13.2178 31.8604 12 30.6515 12 29.1602V22.3115C12.0138 21.7242 12.2934 21.1743 12.7611 20.8144L17.8911 16.708C18.7771 15.9458 20.0855 15.9222 20.9988 16.652L26.2486 20.8144C26.6952 21.1852 26.9533 21.7335 26.9533 22.3115V29.1671C26.9533 29.8827 26.6665 30.5688 26.1562 31.0741Z" fill="#3EA0FE" fill-opacity="0.35"/>
<path d="M11.5 22.2997L11.5001 22.2997C11.5175 21.5623 11.8677 20.8728 12.4521 20.4212L17.5721 16.3229C18.64 15.41 20.2115 15.3835 21.31 16.2607C21.3103 16.261 21.3106 16.2612 21.3109 16.2615L26.5593 20.4226L26.5681 20.4296L26.568 20.4297C27.1285 20.8951 27.4533 21.584 27.4533 22.3115V22.3115V29.1671C27.4533 30.0167 27.1128 30.8306 26.508 31.4294C25.9035 32.0279 25.0849 32.3624 24.2327 32.3604H24.2332L11.5 22.2997ZM11.5 22.2997V22.3115V29.1602C11.5 30.9311 12.9451 32.3604 14.7201 32.3604L24.232 32.3604L11.5 22.2997Z" stroke="url(#paint1_linear_691_335)" stroke-linecap="round" stroke-linejoin="round"/>
</g>
<g filter="url(#filter2_bd_691_335)">
<rect x="16.0475" y="27.8772" width="6.55312" height="1.54191" rx="0.770955" fill="url(#paint2_linear_691_335)"/>
<rect x="16.1475" y="27.9772" width="6.35312" height="1.34191" rx="0.670955" stroke="url(#paint3_linear_691_335)" stroke-opacity="0.5" stroke-width="0.2"/>
</g>
<defs>
<filter id="filter0_f_691_335" x="0.863525" y="0.378723" width="45.0345" height="45.1967" filterUnits="userSpaceOnUse" color-interpolation-filters="sRGB">
<feFlood flood-opacity="0" result="BackgroundImageFix"/>
<feBlend mode="normal" in="SourceGraphic" in2="BackgroundImageFix" result="shape"/>
<feGaussianBlur stdDeviation="9" result="effect1_foregroundBlur_691_335"/>
</filter>
<filter id="filter1_b_691_335" x="-13" y="-8.87987" width="64.9534" height="65.7403" filterUnits="userSpaceOnUse" color-interpolation-filters="sRGB">
<feFlood flood-opacity="0" result="BackgroundImageFix"/>
<feGaussianBlur in="BackgroundImageFix" stdDeviation="12"/>
<feComposite in2="SourceAlpha" operator="in" result="effect1_backgroundBlur_691_335"/>
<feBlend mode="normal" in="SourceGraphic" in2="effect1_backgroundBlur_691_335" result="shape"/>
</filter>
<filter id="filter2_bd_691_335" x="1.04749" y="12.8772" width="38.5531" height="33.5419" filterUnits="userSpaceOnUse" color-interpolation-filters="sRGB">
<feFlood flood-opacity="0" result="BackgroundImageFix"/>
<feGaussianBlur in="BackgroundImageFix" stdDeviation="7.5"/>
<feComposite in2="SourceAlpha" operator="in" result="effect1_backgroundBlur_691_335"/>
<feColorMatrix in="SourceAlpha" type="matrix" values="0 0 0 0 0 0 0 0 0 0 0 0 0 0 0 0 0 0 127 0" result="hardAlpha"/>
<feOffset dx="5" dy="5"/>
<feGaussianBlur stdDeviation="6"/>
<feColorMatrix type="matrix" values="0 0 0 0 0.15375 0 0 0 0 0.522433 0 0 0 0 0.9 0 0 0 0.28 0"/>
<feBlend mode="normal" in2="effect1_backgroundBlur_691_335" result="effect2_dropShadow_691_335"/>
<feBlend mode="normal" in="SourceGraphic" in2="effect2_dropShadow_691_335" result="shape"/>
</filter>
<linearGradient id="paint0_linear_691_335" x1="32.0532" y1="17.5062" x2="14.0505" y2="24.976" gradientUnits="userSpaceOnUse">
<stop stop-color="#39AFFD"/>
<stop offset="1" stop-color="#477FFF"/>
</linearGradient>
<linearGradient id="paint1_linear_691_335" x1="14.3803" y1="17.9539" x2="27.5685" y2="30.1839" gradientUnits="userSpaceOnUse">
<stop stop-color="white" stop-opacity="0.25"/>
<stop offset="1" stop-color="white" stop-opacity="0"/>
</linearGradient>
<linearGradient id="paint2_linear_691_335" x1="22.136" y1="28.1556" x2="14.9663" y2="29.1491" gradientUnits="userSpaceOnUse">
<stop stop-color="white"/>
<stop offset="1" stop-color="white" stop-opacity="0.2"/>
</linearGradient>
<linearGradient id="paint3_linear_691_335" x1="16.7534" y1="28.3944" x2="22.315" y2="28.5249" gradientUnits="userSpaceOnUse">
<stop stop-color="white"/>
<stop offset="1" stop-color="white" stop-opacity="0"/>
</linearGradient>
</defs>
</svg>
