<svg width="276" height="139" viewBox="0 0 276 139" fill="none" xmlns="http://www.w3.org/2000/svg">
<path d="M90.4531 24L98.5312 1.20312H106.016L114.125 24H107.078L102.375 9.75C102.25 9.36458 102.151 9.01042 102.078 8.6875C102.016 8.36458 101.964 8.08854 101.922 7.85938H101.844C101.802 8.08854 101.745 8.36458 101.672 8.6875C101.599 9.01042 101.505 9.35938 101.391 9.73438L96.8438 24H90.4531ZM95.8438 20.1094L96.9531 15.5H107.141L108.312 20.1094H95.8438ZM115.047 24V0.578125H121.703V24H115.047ZM124.625 24V8.39062H131.328V24H124.625ZM124.281 3.85938C124.281 2.93229 124.599 2.15625 125.234 1.53125C125.88 0.895833 126.797 0.578125 127.984 0.578125C129.172 0.578125 130.083 0.890625 130.719 1.51562C131.354 2.14062 131.672 2.92188 131.672 3.85938C131.672 4.78646 131.349 5.57292 130.703 6.21875C130.057 6.86458 129.141 7.1875 127.953 7.1875C126.766 7.1875 125.854 6.86458 125.219 6.21875C124.594 5.57292 124.281 4.78646 124.281 3.85938ZM134.484 24V1.25H144.906C147.531 1.25 149.552 1.94792 150.969 3.34375C152.385 4.72917 153.094 6.6875 153.094 9.21875C153.094 11.75 152.396 13.7135 151 15.1094C149.604 16.4948 147.547 17.1875 144.828 17.1875H141.312V24H134.484ZM141.312 12.5156H143.562C144.594 12.5156 145.302 12.2396 145.688 11.6875C146.073 11.125 146.266 10.3281 146.266 9.29688C146.266 8.27604 146.073 7.49479 145.688 6.95312C145.302 6.40104 144.594 6.125 143.562 6.125H141.312V12.5156ZM155.422 24V1.25H165.844C168.469 1.25 170.49 1.94792 171.906 3.34375C173.323 4.72917 174.031 6.6875 174.031 9.21875C174.031 11.75 173.333 13.7135 171.938 15.1094C170.542 16.4948 168.484 17.1875 165.766 17.1875H162.25V24H155.422ZM162.25 12.5156H164.5C165.531 12.5156 166.24 12.2396 166.625 11.6875C167.01 11.125 167.203 10.3281 167.203 9.29688C167.203 8.27604 167.01 7.49479 166.625 6.95312C166.24 6.40104 165.531 6.125 164.5 6.125H162.25V12.5156ZM176.359 24V1.25H192.688V6.4375H183V10.0469H191.328V14.8125H183V18.9375H192.906V24H176.359ZM211.797 24V1.25H222.219C224.844 1.25 226.865 1.94792 228.281 3.34375C229.698 4.72917 230.406 6.6875 230.406 9.21875C230.406 11.75 229.708 13.7135 228.312 15.1094C226.917 16.4948 224.859 17.1875 222.141 17.1875H218.625V24H211.797ZM218.625 12.5156H220.875C221.906 12.5156 222.615 12.2396 223 11.6875C223.385 11.125 223.578 10.3281 223.578 9.29688C223.578 8.27604 223.385 7.49479 223 6.95312C222.615 6.40104 221.906 6.125 220.875 6.125H218.625V12.5156ZM232.734 24V1.25H242.719C245.292 1.25 247.339 1.91667 248.859 3.25C250.391 4.58333 251.156 6.4375 251.156 8.8125C251.156 11.2396 250.365 13.1562 248.781 14.5625C247.198 15.9583 245.156 16.6562 242.656 16.6562H239.562V24H232.734ZM239.562 12.1094H241.656C242.604 12.1094 243.276 11.8438 243.672 11.3125C244.078 10.7812 244.286 10.0312 244.297 9.0625C244.297 8.11458 244.094 7.38021 243.688 6.85938C243.281 6.32812 242.604 6.0625 241.656 6.0625H239.562V12.1094ZM244.609 24L240.203 13.9375L246.812 12.9531L252.141 24H244.609ZM252.984 13.2969V11.9531C252.984 8.18229 253.958 5.39062 255.906 3.57812C257.865 1.76562 260.38 0.859375 263.453 0.859375C266.516 0.859375 269.031 1.76562 271 3.57812C272.969 5.39062 273.953 8.18229 273.953 11.9531V13.2969C273.953 17.0677 272.969 19.8594 271 21.6719C269.031 23.4844 266.516 24.3906 263.453 24.3906C260.38 24.3906 257.865 23.4844 255.906 21.6719C253.958 19.8594 252.984 17.0677 252.984 13.2969ZM260.078 14.8281C260.078 16.5677 260.375 17.8073 260.969 18.5469C261.562 19.276 262.391 19.6406 263.453 19.6406C264.516 19.6406 265.349 19.276 265.953 18.5469C266.557 17.8073 266.859 16.5677 266.859 14.8281V10.4531C266.859 8.71354 266.557 7.48438 265.953 6.76562C265.349 6.03646 264.516 5.67188 263.453 5.67188C262.391 5.67188 261.562 6.03646 260.969 6.76562C260.375 7.48438 260.078 8.71354 260.078 10.4531V14.8281ZM31.3125 62V46.3906H40.375L42.3281 52.8906C42.4948 53.5156 42.6042 53.9635 42.6562 54.2344C42.7188 54.4948 42.776 54.7656 42.8281 55.0469H42.9375C42.9792 54.7656 43.026 54.4948 43.0781 54.2344C43.1406 53.974 43.2604 53.5312 43.4375 52.9062L45.3594 46.3906H54.375V62H47.8438V54.1875C47.8438 53.5833 47.849 53.1146 47.8594 52.7812C47.8698 52.4479 47.8854 52.1354 47.9062 51.8438H47.7812C47.7188 52.1458 47.6458 52.4479 47.5625 52.75C47.4896 53.0521 47.3594 53.526 47.1719 54.1719L44.8125 62H39.6719L37.2969 54.1406C37.1198 53.5573 36.9948 53.1042 36.9219 52.7812C36.849 52.4479 36.7812 52.1354 36.7188 51.8438H36.5781C36.5885 52.1354 36.599 52.4375 36.6094 52.75C36.6302 53.0521 36.6406 53.5104 36.6406 54.125V62H31.3125ZM57.1094 68.4531L57.1719 64.1094C57.4948 64.1823 57.8281 64.2396 58.1719 64.2812C58.526 64.3333 58.8646 64.3594 59.1875 64.3594C59.9062 64.3594 60.526 64.1875 61.0469 63.8438C61.5677 63.5104 61.9427 62.8854 62.1719 61.9688L62.0156 61.9531L55.7344 46.3906H62.5469L65.0625 53.9219C65.1667 54.2344 65.2396 54.5156 65.2812 54.7656C65.3333 55.0052 65.3854 55.2708 65.4375 55.5625H65.5312C65.5938 55.2708 65.6458 55.0052 65.6875 54.7656C65.7396 54.5156 65.8177 54.2292 65.9219 53.9062L68.5 46.3906H74.4688L68.2812 62.7188C67.4167 64.9792 66.375 66.5573 65.1562 67.4531C63.9375 68.3594 62.4167 68.8125 60.5938 68.8125C59.8646 68.8125 59.1927 68.7865 58.5781 68.7344C57.974 68.6823 57.4844 68.5885 57.1094 68.4531ZM75.8125 46.3906H88.8281V51.1094H82.4219V62H75.8125V46.3906ZM90.0938 57.4219C90.0938 55.6719 90.7708 54.349 92.125 53.4531C93.4896 52.5573 95.2396 52.1042 97.375 52.0938H100.625V51.4062C100.625 50.8958 100.5 50.4896 100.25 50.1875C100.01 49.8854 99.5833 49.7344 98.9688 49.7344C98.3542 49.7344 97.9115 49.8594 97.6406 50.1094C97.3802 50.3594 97.25 50.6979 97.25 51.125V51.4531L91.0156 51.4375V51.1094C91.0156 49.526 91.7865 48.2708 93.3281 47.3438C94.8698 46.4062 96.8906 45.9375 99.3906 45.9375C101.943 45.9375 103.885 46.3906 105.219 47.2969C106.562 48.1927 107.234 49.6198 107.234 51.5781V58.6094C107.234 59.224 107.297 59.8125 107.422 60.375C107.547 60.9271 107.719 61.3906 107.938 61.7656V62H101.375C101.24 61.7604 101.13 61.474 101.047 61.1406C100.964 60.7969 100.906 60.4531 100.875 60.1094C100.562 60.651 99.9427 61.1458 99.0156 61.5938C98.099 62.0417 96.9688 62.2656 95.625 62.2656C93.9792 62.2656 92.6458 61.8698 91.625 61.0781C90.6042 60.276 90.0938 59.0573 90.0938 57.4219ZM96.6719 56.8281C96.6719 57.3385 96.8073 57.75 97.0781 58.0625C97.3594 58.3646 97.7969 58.5156 98.3906 58.5156C99.0677 58.5156 99.6094 58.3021 100.016 57.875C100.422 57.4375 100.625 56.8802 100.625 56.2031V55.2656H99C98.1875 55.2656 97.5938 55.3958 97.2188 55.6562C96.8542 55.9062 96.6719 56.2969 96.6719 56.8281ZM117.672 51.1094L117.531 54.4531C117.417 57.4219 116.932 59.4844 116.078 60.6406C115.224 61.7969 113.76 62.375 111.688 62.375C111.135 62.375 110.651 62.3438 110.234 62.2812C109.818 62.2188 109.484 62.1406 109.234 62.0469V56.8594C109.391 56.9219 109.536 56.9688 109.672 57C109.818 57.0208 109.984 57.0312 110.172 57.0312C110.745 57.0312 111.135 56.7917 111.344 56.3125C111.552 55.8333 111.682 54.9635 111.734 53.7031L112.031 46.3906H127.234V62H120.609V51.1094H117.672ZM130.156 62V46.3906H136.75V52.0625C136.75 52.4167 136.74 52.8438 136.719 53.3438C136.708 53.8333 136.682 54.2448 136.641 54.5781L136.766 54.5938C136.901 54.2396 137.042 53.8958 137.188 53.5625C137.333 53.2188 137.521 52.7812 137.75 52.25L140.641 46.3906H147.344V62H140.75V56.2656C140.75 55.8177 140.75 55.3802 140.75 54.9531C140.75 54.5156 140.755 54.1198 140.766 53.7656H140.656C140.531 54.1094 140.401 54.4427 140.266 54.7656C140.141 55.0885 139.964 55.5208 139.734 56.0625L136.844 62H130.156ZM150.281 62V46.3906H159.344L161.297 52.8906C161.464 53.5156 161.573 53.9635 161.625 54.2344C161.688 54.4948 161.745 54.7656 161.797 55.0469H161.906C161.948 54.7656 161.995 54.4948 162.047 54.2344C162.109 53.974 162.229 53.5312 162.406 52.9062L164.328 46.3906H173.344V62H166.812V54.1875C166.812 53.5833 166.818 53.1146 166.828 52.7812C166.839 52.4479 166.854 52.1354 166.875 51.8438H166.75C166.688 52.1458 166.615 52.4479 166.531 52.75C166.458 53.0521 166.328 53.526 166.141 54.1719L163.781 62H158.641L156.266 54.1406C156.089 53.5573 155.964 53.1042 155.891 52.7812C155.818 52.4479 155.75 52.1354 155.688 51.8438H155.547C155.557 52.1354 155.568 52.4375 155.578 52.75C155.599 53.0521 155.609 53.5104 155.609 54.125V62H150.281ZM189.125 66.2188V62H181.141V66.2188H175V57.2656H195.266V66.2188H189.125ZM183.406 51.1094L183.328 52.9688C183.286 53.9583 183.198 54.8229 183.062 55.5625C182.938 56.3021 182.76 56.9583 182.531 57.5312H176.406C176.781 56.8125 177.062 55.9167 177.25 54.8438C177.438 53.7708 177.568 52.3906 177.641 50.7031L177.812 46.3906H193.172V62H186.562V51.1094H183.406ZM196.266 54.4062V53.9062C196.266 51.4375 197.094 49.4844 198.75 48.0469C200.417 46.6094 202.573 45.8906 205.219 45.8906C207.833 45.8906 209.885 46.5833 211.375 47.9688C212.865 49.3542 213.609 51.2604 213.609 53.6875V55.3125H200.344V52.6719H207.188V52.4062C207.188 51.8021 207.01 51.3021 206.656 50.9062C206.302 50.5104 205.792 50.3125 205.125 50.3125C204.385 50.3125 203.818 50.5781 203.422 51.1094C203.026 51.6406 202.828 52.4427 202.828 53.5156V54.6562C202.828 55.7604 203.047 56.5833 203.484 57.125C203.932 57.6562 204.557 57.9219 205.359 57.9219C206.005 57.9219 206.552 57.7604 207 57.4375C207.458 57.1042 207.823 56.7083 208.094 56.25L213.344 58.2188C212.812 59.5938 211.88 60.6458 210.547 61.375C209.214 62.0938 207.516 62.4531 205.453 62.4531C202.609 62.4531 200.365 61.7344 198.719 60.2969C197.083 58.8594 196.266 56.8958 196.266 54.4062ZM215.656 68.5312V46.3906H222.016L222.062 48H222.141C222.474 47.4167 223.042 46.9375 223.844 46.5625C224.656 46.1875 225.562 46 226.562 46C228.594 46 230.245 46.6875 231.516 48.0625C232.786 49.4375 233.422 51.3802 233.422 53.8906V54.3906C233.422 56.8385 232.786 58.7708 231.516 60.1875C230.245 61.6042 228.625 62.3125 226.656 62.3125C225.656 62.3125 224.771 62.1667 224 61.875C223.24 61.5729 222.656 61.1562 222.25 60.625V68.5312H215.656ZM222.25 56.1406C222.406 56.5885 222.688 56.9688 223.094 57.2812C223.5 57.5938 223.969 57.75 224.5 57.75C225.229 57.75 225.776 57.5104 226.141 57.0312C226.516 56.5417 226.703 55.7917 226.703 54.7812V53.5625C226.703 52.5417 226.516 51.7969 226.141 51.3281C225.776 50.8594 225.229 50.625 224.5 50.625C223.917 50.625 223.438 50.776 223.062 51.0781C222.688 51.3802 222.417 51.7396 222.25 52.1562V56.1406ZM248.5 66.2188V62H240.516V66.2188H234.375V57.2656H254.641V66.2188H248.5ZM242.781 51.1094L242.703 52.9688C242.661 53.9583 242.573 54.8229 242.438 55.5625C242.312 56.3021 242.135 56.9583 241.906 57.5312H235.781C236.156 56.8125 236.438 55.9167 236.625 54.8438C236.812 53.7708 236.943 52.3906 237.016 50.7031L237.188 46.3906H252.547V62H245.938V51.1094H242.781ZM256.344 62V46.3906H262.938V52.0625C262.938 52.4167 262.927 52.8438 262.906 53.3438C262.896 53.8333 262.87 54.2448 262.828 54.5781L262.953 54.5938C263.089 54.2396 263.229 53.8958 263.375 53.5625C263.521 53.2188 263.708 52.7812 263.938 52.25L266.828 46.3906H273.531V62H266.938V56.2656C266.938 55.8177 266.938 55.3802 266.938 54.9531C266.938 54.5156 266.943 54.1198 266.953 53.7656H266.844C266.719 54.1094 266.589 54.4427 266.453 54.7656C266.328 55.0885 266.151 55.5208 265.922 56.0625L263.031 62H256.344ZM0.8125 100V84.3906H7.42188V95.2656H10.5781V84.3906H17.1875V95.2656H20.3438V84.3906H26.9531V100H0.8125ZM36.5781 84.3906V88.8906H40.25C42.4062 88.8906 44.0312 89.3854 45.125 90.375C46.2188 91.3646 46.7656 92.7396 46.7656 94.5C46.7656 96.3438 46.2188 97.724 45.125 98.6406C44.0312 99.5469 42.4062 100 40.25 100H29.9688V84.3906H36.5781ZM38.375 92.8281H36.5781V96.0625H38.375C38.9896 96.0625 39.4375 95.9375 39.7188 95.6875C40 95.4271 40.1406 95.0052 40.1406 94.4219C40.1406 93.901 40 93.5052 39.7188 93.2344C39.4479 92.9635 39 92.8281 38.375 92.8281ZM47.9219 100V84.3906H54.625V100H47.9219ZM68.7344 100L64.4062 93.25L69.0781 89.5L76.2969 100H68.7344ZM60.9062 89.6875H65.0938L68.3438 84.375H75.4688L68.8438 94.4375H60.9062V89.6875ZM64.1719 84.375V100H57.5625V84.375H64.1719ZM76.2344 89.1094V84.3906H92.1094V89.1094H87.4844V100H80.8594V89.1094H76.2344ZM93.3438 95.4219C93.3438 93.6719 94.0208 92.349 95.375 91.4531C96.7396 90.5573 98.4896 90.1042 100.625 90.0938H103.875V89.4062C103.875 88.8958 103.75 88.4896 103.5 88.1875C103.26 87.8854 102.833 87.7344 102.219 87.7344C101.604 87.7344 101.161 87.8594 100.891 88.1094C100.63 88.3594 100.5 88.6979 100.5 89.125V89.4531L94.2656 89.4375V89.1094C94.2656 87.526 95.0365 86.2708 96.5781 85.3438C98.1198 84.4062 100.141 83.9375 102.641 83.9375C105.193 83.9375 107.135 84.3906 108.469 85.2969C109.812 86.1927 110.484 87.6198 110.484 89.5781V96.6094C110.484 97.224 110.547 97.8125 110.672 98.375C110.797 98.9271 110.969 99.3906 111.188 99.7656V100H104.625C104.49 99.7604 104.38 99.474 104.297 99.1406C104.214 98.7969 104.156 98.4531 104.125 98.1094C103.812 98.651 103.193 99.1458 102.266 99.5938C101.349 100.042 100.219 100.266 98.875 100.266C97.2292 100.266 95.8958 99.8698 94.875 99.0781C93.8542 98.276 93.3438 97.0573 93.3438 95.4219ZM99.9219 94.8281C99.9219 95.3385 100.057 95.75 100.328 96.0625C100.609 96.3646 101.047 96.5156 101.641 96.5156C102.318 96.5156 102.859 96.3021 103.266 95.875C103.672 95.4375 103.875 94.8802 103.875 94.2031V93.2656H102.25C101.438 93.2656 100.844 93.3958 100.469 93.6562C100.104 93.9062 99.9219 94.2969 99.9219 94.8281ZM113.562 84.3906H120.172V89.7188H123.844V84.3906H130.453V100H123.844V94.4219H120.172V100H113.562V84.3906ZM146.219 104.219V100H138.234V104.219H132.094V95.2656H152.359V104.219H146.219ZM140.5 89.1094L140.422 90.9688C140.38 91.9583 140.292 92.8229 140.156 93.5625C140.031 94.3021 139.854 94.9583 139.625 95.5312H133.5C133.875 94.8125 134.156 93.9167 134.344 92.8438C134.531 91.7708 134.661 90.3906 134.734 88.7031L134.906 84.3906H150.266V100H143.656V89.1094H140.5ZM160.734 84.3906V88.8906H164.406C166.562 88.8906 168.188 89.3854 169.281 90.375C170.375 91.3646 170.922 92.7396 170.922 94.5C170.922 96.3438 170.375 97.724 169.281 98.6406C168.188 99.5469 166.562 100 164.406 100H154.125V84.3906H160.734ZM162.531 92.8281H160.734V96.0625H162.531C163.146 96.0625 163.594 95.9375 163.875 95.6875C164.156 95.4271 164.297 95.0052 164.297 94.4219C164.297 93.901 164.156 93.5052 163.875 93.2344C163.604 92.9635 163.156 92.8281 162.531 92.8281ZM172.078 100V84.3906H178.781V100H172.078ZM181.719 106.531V84.3906H188.078L188.125 86H188.203C188.536 85.4167 189.104 84.9375 189.906 84.5625C190.719 84.1875 191.625 84 192.625 84C194.656 84 196.307 84.6875 197.578 86.0625C198.849 87.4375 199.484 89.3802 199.484 91.8906V92.3906C199.484 94.8385 198.849 96.7708 197.578 98.1875C196.307 99.6042 194.688 100.312 192.719 100.312C191.719 100.312 190.833 100.167 190.062 99.875C189.302 99.5729 188.719 99.1562 188.312 98.625V106.531H181.719ZM188.312 94.1406C188.469 94.5885 188.75 94.9688 189.156 95.2812C189.562 95.5938 190.031 95.75 190.562 95.75C191.292 95.75 191.839 95.5104 192.203 95.0312C192.578 94.5417 192.766 93.7917 192.766 92.7812V91.5625C192.766 90.5417 192.578 89.7969 192.203 89.3281C191.839 88.8594 191.292 88.625 190.562 88.625C189.979 88.625 189.5 88.776 189.125 89.0781C188.75 89.3802 188.479 89.7396 188.312 90.1562V94.1406ZM201.516 106.453L201.578 102.109C201.901 102.182 202.234 102.24 202.578 102.281C202.932 102.333 203.271 102.359 203.594 102.359C204.312 102.359 204.932 102.188 205.453 101.844C205.974 101.51 206.349 100.885 206.578 99.9688L206.422 99.9531L200.141 84.3906H206.953L209.469 91.9219C209.573 92.2344 209.646 92.5156 209.688 92.7656C209.74 93.0052 209.792 93.2708 209.844 93.5625H209.938C210 93.2708 210.052 93.0052 210.094 92.7656C210.146 92.5156 210.224 92.2292 210.328 91.9062L212.906 84.3906H218.875L212.688 100.719C211.823 102.979 210.781 104.557 209.562 105.453C208.344 106.359 206.823 106.812 205 106.812C204.271 106.812 203.599 106.786 202.984 106.734C202.38 106.682 201.891 106.589 201.516 106.453ZM220.016 106.453L220.078 102.109C220.401 102.182 220.734 102.24 221.078 102.281C221.432 102.333 221.771 102.359 222.094 102.359C222.812 102.359 223.432 102.188 223.953 101.844C224.474 101.51 224.849 100.885 225.078 99.9688L224.922 99.9531L218.641 84.3906H225.453L227.969 91.9219C228.073 92.2344 228.146 92.5156 228.188 92.7656C228.24 93.0052 228.292 93.2708 228.344 93.5625H228.438C228.5 93.2708 228.552 93.0052 228.594 92.7656C228.646 92.5156 228.724 92.2292 228.828 91.9062L231.406 84.3906H237.375L231.188 100.719C230.323 102.979 229.281 104.557 228.062 105.453C226.844 106.359 225.323 106.812 223.5 106.812C222.771 106.812 222.099 106.786 221.484 106.734C220.88 106.682 220.391 106.589 220.016 106.453ZM244.875 88.375C244.875 89.1354 245.026 89.6719 245.328 89.9844C245.641 90.2969 246.203 90.4531 247.016 90.4531C247.828 90.4531 248.583 90.3958 249.281 90.2812C249.979 90.1667 250.771 89.9896 251.656 89.75V94.2344C250.781 94.4531 249.802 94.6406 248.719 94.7969C247.646 94.9427 246.375 95.0156 244.906 95.0156C242.698 95.0156 241.036 94.5625 239.922 93.6562C238.807 92.75 238.25 91.1562 238.25 88.875V84.3906H244.875V88.375ZM255.016 84.3906V100H248.406V84.3906H255.016ZM257.766 106.453L257.828 102.109C258.151 102.182 258.484 102.24 258.828 102.281C259.182 102.333 259.521 102.359 259.844 102.359C260.562 102.359 261.182 102.188 261.703 101.844C262.224 101.51 262.599 100.885 262.828 99.9688L262.672 99.9531L256.391 84.3906H263.203L265.719 91.9219C265.823 92.2344 265.896 92.5156 265.938 92.7656C265.99 93.0052 266.042 93.2708 266.094 93.5625H266.188C266.25 93.2708 266.302 93.0052 266.344 92.7656C266.396 92.5156 266.474 92.2292 266.578 91.9062L269.156 84.3906H275.125L268.938 100.719C268.073 102.979 267.031 104.557 265.812 105.453C264.594 106.359 263.073 106.812 261.25 106.812C260.521 106.812 259.849 106.786 259.234 106.734C258.63 106.682 258.141 106.589 257.766 106.453ZM161.781 133.422C161.781 131.672 162.458 130.349 163.812 129.453C165.177 128.557 166.927 128.104 169.062 128.094H172.312V127.406C172.312 126.896 172.188 126.49 171.938 126.188C171.698 125.885 171.271 125.734 170.656 125.734C170.042 125.734 169.599 125.859 169.328 126.109C169.068 126.359 168.938 126.698 168.938 127.125V127.453L162.703 127.438V127.109C162.703 125.526 163.474 124.271 165.016 123.344C166.557 122.406 168.578 121.938 171.078 121.938C173.63 121.938 175.573 122.391 176.906 123.297C178.25 124.193 178.922 125.62 178.922 127.578V134.609C178.922 135.224 178.984 135.812 179.109 136.375C179.234 136.927 179.406 137.391 179.625 137.766V138H173.062C172.927 137.76 172.818 137.474 172.734 137.141C172.651 136.797 172.594 136.453 172.562 136.109C172.25 136.651 171.63 137.146 170.703 137.594C169.786 138.042 168.656 138.266 167.312 138.266C165.667 138.266 164.333 137.87 163.312 137.078C162.292 136.276 161.781 135.057 161.781 133.422ZM168.359 132.828C168.359 133.339 168.495 133.75 168.766 134.062C169.047 134.365 169.484 134.516 170.078 134.516C170.755 134.516 171.297 134.302 171.703 133.875C172.109 133.438 172.312 132.88 172.312 132.203V131.266H170.688C169.875 131.266 169.281 131.396 168.906 131.656C168.542 131.906 168.359 132.297 168.359 132.828ZM187.719 138H180.969L184.672 131.625L191.062 131.875L187.719 138ZM191.828 138V133.156H189.078L188.062 132.781C185.958 132.76 184.354 132.297 183.25 131.391C182.156 130.474 181.609 129.208 181.609 127.594C181.609 125.979 182.172 124.708 183.297 123.781C184.422 122.854 186.057 122.391 188.203 122.391H198.188V138H191.828ZM189.891 129.531H191.828V126.062H189.891C189.203 126.062 188.708 126.224 188.406 126.547C188.115 126.859 187.969 127.276 187.969 127.797C187.969 128.318 188.109 128.74 188.391 129.062C188.682 129.375 189.182 129.531 189.891 129.531ZM201.125 122.391H207.734V127.719H211.406V122.391H218.016V138H211.406V132.422H207.734V138H201.125V122.391ZM219.891 127.109V122.391H235.766V127.109H231.141V138H224.516V127.109H219.891ZM243.812 126.375C243.812 127.135 243.964 127.672 244.266 127.984C244.578 128.297 245.141 128.453 245.953 128.453C246.766 128.453 247.521 128.396 248.219 128.281C248.917 128.167 249.708 127.99 250.594 127.75V132.234C249.719 132.453 248.74 132.641 247.656 132.797C246.583 132.943 245.312 133.016 243.844 133.016C241.635 133.016 239.974 132.562 238.859 131.656C237.745 130.75 237.188 129.156 237.188 126.875V122.391H243.812V126.375ZM253.953 122.391V138H247.344V122.391H253.953ZM256.25 133.422C256.25 131.672 256.927 130.349 258.281 129.453C259.646 128.557 261.396 128.104 263.531 128.094H266.781V127.406C266.781 126.896 266.656 126.49 266.406 126.188C266.167 125.885 265.74 125.734 265.125 125.734C264.51 125.734 264.068 125.859 263.797 126.109C263.536 126.359 263.406 126.698 263.406 127.125V127.453L257.172 127.438V127.109C257.172 125.526 257.943 124.271 259.484 123.344C261.026 122.406 263.047 121.938 265.547 121.938C268.099 121.938 270.042 122.391 271.375 123.297C272.719 124.193 273.391 125.62 273.391 127.578V134.609C273.391 135.224 273.453 135.812 273.578 136.375C273.703 136.927 273.875 137.391 274.094 137.766V138H267.531C267.396 137.76 267.286 137.474 267.203 137.141C267.12 136.797 267.062 136.453 267.031 136.109C266.719 136.651 266.099 137.146 265.172 137.594C264.255 138.042 263.125 138.266 261.781 138.266C260.135 138.266 258.802 137.87 257.781 137.078C256.76 136.276 256.25 135.057 256.25 133.422ZM262.828 132.828C262.828 133.339 262.964 133.75 263.234 134.062C263.516 134.365 263.953 134.516 264.547 134.516C265.224 134.516 265.766 134.302 266.172 133.875C266.578 133.438 266.781 132.88 266.781 132.203V131.266H265.156C264.344 131.266 263.75 131.396 263.375 131.656C263.01 131.906 262.828 132.297 262.828 132.828Z" fill="url(#paint0_radial_243_499)"/>
<defs>
<radialGradient id="paint0_radial_243_499" cx="0" cy="0" r="1" gradientUnits="userSpaceOnUse" gradientTransform="translate(14.5932 26.9558) rotate(27.3653) scale(188.749 273.568)">
<stop stop-color="#BA0F43"/>
<stop offset="1" stop-color="#157D97"/>
</radialGradient>
</defs>
</svg>
