<svg width="24" height="24" viewBox="0 0 24 24" fill="none" xmlns="http://www.w3.org/2000/svg">
<path d="M10 2C10 1.44772 9.55228 1 9 1C8.44772 1 8 1.44772 8 2L8 22C8 22.5523 8.44772 23 9 23C9.55229 23 10 22.5523 10 22L10 2Z" fill="#BA0F43"/>
<path d="M6 4C6.55228 4 7 4.44772 7 5L7 19C7 19.5523 6.55229 20 6 20C5.44772 20 5 19.5523 5 19L5 5C5 4.44772 5.44772 4 6 4Z" fill="#BA0F43"/>
<path d="M3 8C3.55228 8 4 8.44772 4 9V15C4 15.5523 3.55228 16 3 16C2.44772 16 2 15.5523 2 15V9C2 8.44772 2.44772 8 3 8Z" fill="#BA0F43"/>
<path d="M12 8C12.5523 8 13 8.44772 13 9V15C13 15.5523 12.5523 16 12 16C11.4477 16 11 15.5523 11 15V9C11 8.44772 11.4477 8 12 8Z" fill="#BA0F43"/>
<path d="M16 6C16 5.44772 15.5523 5 15 5C14.4477 5 14 5.44772 14 6V18C14 18.5523 14.4477 19 15 19C15.5523 19 16 18.5523 16 18V6Z" fill="#BA0F43"/>
<path d="M18 7C18.5523 7 19 7.44772 19 8V16C19 16.5523 18.5523 17 18 17C17.4477 17 17 16.5523 17 16V8C17 7.44772 17.4477 7 18 7Z" fill="#BA0F43"/>
<path d="M22 11C22 10.4477 21.5523 10 21 10C20.4477 10 20 10.4477 20 11V13C20 13.5523 20.4477 14 21 14C21.5523 14 22 13.5523 22 13V11Z" fill="#BA0F43"/>
</svg>
