<svg width="78" height="78" viewBox="0 0 78 78" fill="none" xmlns="http://www.w3.org/2000/svg">
<path d="M64 66.9261C64 54.2943 49.4167 51.5 39 51.5C28.5833 51.5 14 54.2943 14 66.9261M76.5 39C76.5 59.7107 59.7107 76.5 39 76.5C18.2893 76.5 1.5 59.7107 1.5 39C1.5 18.2893 18.2893 1.5 39 1.5C59.7107 1.5 76.5 18.2893 76.5 39ZM51.5 26.5C51.5 33.4036 45.9036 39 39 39C32.0964 39 26.5 33.4036 26.5 26.5C26.5 19.5964 32.0964 14 39 14C45.9036 14 51.5 19.5964 51.5 26.5Z" stroke="#054E45" stroke-width="1.5" stroke-linecap="round" stroke-linejoin="round"/>
</svg>
